<?xml version="1.0" standalone="no"?><!DOCTYPE svg PUBLIC "-//W3C//DTD SVG 1.1//EN" "http://www.w3.org/Graphics/SVG/1.1/DTD/svg11.dtd" ><svg xmlns="http://www.w3.org/2000/svg"><metadata></metadata><defs><font id="Founder:FZLanTingHei-R-GBK	Regular" horiz-adv-x="256"><font-face font-family="FZLanTingHei-R-GBK" font-weight="400" font-stretch="normal" units-per-em="256" panose-1="2 0 0 0 0 0 0 0 0 0" ascent="229" descent="-64" x-height="0" bbox="0 -37 255 218" underline-thickness="12" underline-position="-52" unicode-range="U+002f-ff0c" /><missing-glyph horiz-adv-x="256"  /><glyph glyph-name="" unicode="/" d="M0 -12 L19 -12 L77 194 L58 194 L0 -12 Z" /><glyph glyph-name="" unicode="0" d="M77 176 Q36 173 35 90 Q35 4 78 5 Q121 4 121 90 Q121 177 77 176 ZM79 -12 Q12 -11 12 90 Q13 191 78 194 Q143 192 144 90 Q143 -10 79 -12 Z" /><glyph glyph-name="" unicode="1" d="M84 -9 L105 -9 L105 194 L90 194 Q77 162 31 141 L31 120 Q62 132 84 152 L84 -9 Z" /><glyph glyph-name="" unicode="2" d="M140 -7 L140 10 L35 10 Q48 36 89 66 Q142 102 139 141 Q135 192 79 194 Q30 195 13 146 L33 136 Q44 173 75 175 Q115 174 116 138 Q117 111 72 78 Q28 46 9 6 L9 -7 L140 -7 Z" /><glyph glyph-name="" unicode="4" d="M28 58 L96 58 L96 161 Q96 160 94 157 Q93 154 92 152 Q76 131 28 58 ZM144 40 L116 40 L116 -9 L96 -9 L96 40 L4 40 L4 52 L100 194 L116 194 L116 58 L144 58 L144 40 Z" /><glyph glyph-name="" unicode="6" d="M33 67 Q34 6 81 4 Q119 6 121 54 Q120 102 81 103 Q42 101 33 67 ZM140 149 L120 142 Q112 177 82 176 Q32 175 32 93 Q48 120 84 121 Q140 118 144 56 Q140 -7 81 -12 Q10 -12 10 85 Q11 194 83 194 Q127 192 140 149 Z" /><glyph glyph-name="" unicode="8" d="M78 87 Q38 85 34 43 Q38 7 79 4 Q120 7 124 41 Q121 85 78 87 ZM79 176 Q46 174 43 142 Q44 105 79 103 Q112 104 114 140 Q111 173 79 176 ZM51 95 Q21 109 19 140 Q23 191 79 194 Q133 190 138 140 Q136 108 108 95 Q145 81 147 41 Q144 -10 79 -12 Q13 -10 11 43 Q14 82 51 95 Z" /><glyph glyph-name="" unicode="a" d="M56 71 L131 71 L98 156 Q97 161 94 170 Q91 161 89 156 L56 71 ZM164 -9 L139 52 L48 52 L24 -9 L0 -9 L81 191 L105 191 L188 -9 L164 -9 Z" /><glyph glyph-name="" unicode="m" d="M191 -9 L214 -9 L214 191 L184 191 L126 45 Q121 32 118 18 L117 18 Q113 34 109 46 L51 191 L21 191 L21 -9 L42 -9 L42 131 Q42 147 40 173 L41 174 Q43 165 47 149 L110 -9 L123 -9 L187 148 Q191 158 194 174 L195 173 Q195 170 194 162 Q191 137 191 132 L191 -9 Z" /><glyph glyph-name="" unicode="s" d="M143 133 L167 140 Q155 195 90 195 Q24 192 20 141 Q16 99 92 84 Q153 72 148 44 Q146 7 97 6 Q42 4 35 56 L12 48 Q24 -14 98 -12 Q167 -9 172 43 Q176 90 94 105 Q42 116 43 141 Q45 174 92 175 Q132 175 143 133 Z" /><glyph glyph-name="" unicode="u" d="M158 191 L158 75 Q160 4 100 6 Q44 4 45 75 L45 191 L22 191 L22 74 Q21 -13 100 -12 Q181 -13 180 74 L180 191 L158 191 Z" /><glyph glyph-name="" unicode="v" d="M189 191 L164 191 L103 30 Q103 29 102 27 Q98 12 97 7 L96 7 Q93 21 90 30 L28 191 L4 191 L84 -9 L108 -9 L189 191 Z" /><glyph glyph-name="" unicode="m" d="M215 87 L215 -8 L194 -8 L194 82 Q195 124 164 123 Q130 120 127 81 L127 -8 L106 -8 L106 82 Q107 124 77 123 Q43 120 39 83 L39 -8 L18 -8 L18 137 L39 137 L39 115 Q55 141 79 141 Q116 141 124 110 Q140 141 167 141 Q216 142 215 87 Z" /><glyph glyph-name="" unicode="&#x2014;" d="M0 98 L255 98 L255 77 L0 77 L0 98 Z" /><glyph glyph-name="" unicode="&#x3001;" d="M37 36 L52 48 L104 -9 L88 -23 L37 36 Z" /><glyph glyph-name="" unicode="&#x300a;" d="M152 -36 L170 -36 L123 90 L170 218 L152 218 L104 89 L152 -36 ZM190 -36 L209 -36 L161 90 L209 218 L191 218 L143 89 L190 -36 Z" /><glyph glyph-name="" unicode="&#x300b;" d="M86 -36 L104 -36 L152 90 L104 218 L86 218 L134 90 L86 -36 ZM48 -36 L66 -36 L114 90 L65 218 L47 218 L95 90 L48 -36 Z" /><glyph glyph-name="" unicode="&#x4e00;" d="M8 107 L248 107 L248 86 L8 86 L8 107 Z" /><glyph glyph-name="" unicode="&#x4e07;" d="M11 188 L245 188 L245 169 L106 169 Q106 156 103 119 L216 119 Q215 93 210 25 Q210 -25 163 -23 Q138 -23 118 -23 Q117 -19 116 -10 Q115 -2 114 -1 Q133 -2 161 -2 Q189 -5 190 28 Q192 46 195 101 L102 101 Q100 19 23 -29 Q20 -26 16 -20 Q11 -14 9 -12 Q85 32 82 109 Q82 112 83 120 Q85 158 85 169 L11 169 L11 188 Z" /><glyph glyph-name="" unicode="&#x4e0b;" d="M135 125 Q190 96 232 73 L219 54 Q165 87 127 107 L127 -26 L107 -26 L107 170 L10 170 L10 189 L246 189 L246 170 L127 170 L127 112 L135 125 Z" /><glyph glyph-name="" unicode="&#x4e0d;" d="M13 188 L243 188 L243 169 L155 169 Q141 148 126 127 L137 127 L137 -29 L117 -29 L117 114 Q71 60 19 27 Q11 39 6 44 Q86 94 131 169 L13 169 L13 188 ZM162 114 Q172 107 198 90 Q235 67 249 57 L236 39 Q181 79 150 98 L162 114 Z" /><glyph glyph-name="" unicode="&#x4e0e;" d="M47 94 L59 208 L79 208 L75 170 L247 170 L247 152 L73 152 L70 113 L230 113 Q229 99 226 57 Q224 29 223 18 Q221 -26 168 -23 Q146 -24 116 -24 Q114 -7 112 -3 Q127 -4 167 -4 Q200 -5 202 19 Q204 27 207 79 Q208 91 208 94 L47 94 ZM8 57 L187 57 L187 38 L8 38 L8 57 Z" /><glyph glyph-name="" unicode="&#x4e2a;" d="M147 204 Q144 199 141 196 Q179 134 249 105 Q248 105 236 84 Q166 120 129 178 Q87 120 20 80 Q16 88 10 96 Q8 99 7 100 Q80 137 122 207 L147 204 ZM117 120 L138 120 L138 -28 L117 -28 L117 120 Z" /><glyph glyph-name="" unicode="&#x4e2d;" d="M24 156 L118 156 L118 209 L138 209 L138 156 L232 156 L232 46 L213 46 L213 59 L138 59 L138 -30 L118 -30 L118 59 L43 59 L43 46 L24 46 L24 156 ZM213 138 L138 138 L138 77 L213 77 L213 138 ZM43 138 L43 77 L118 77 L118 138 L43 138 Z" /><glyph glyph-name="" unicode="&#x4e4b;" d="M25 162 L223 162 L223 144 Q159 77 70 22 Q91 0 137 -1 Q181 -4 249 -1 Q249 -2 248 -5 Q244 -16 243 -21 Q165 -21 136 -20 Q84 -18 52 13 Q50 16 47 13 Q45 11 42 8 Q26 -6 17 -18 L5 0 Q11 4 21 14 Q33 25 37 29 Q45 35 53 33 Q143 88 196 144 L25 144 L25 162 ZM107 200 L125 209 Q127 206 131 200 Q136 192 147 174 L128 164 Q118 182 107 200 Z" /><glyph glyph-name="" unicode="&#x4e50;" d="M41 188 Q108 189 215 199 L222 180 Q131 173 59 171 L50 101 L121 101 L121 156 L141 156 L141 101 L236 101 L236 83 L141 83 L141 7 Q143 -27 110 -25 Q87 -25 78 -25 Q76 -15 73 -4 Q98 -6 105 -6 Q122 -7 121 10 L121 83 L27 83 L41 188 ZM184 68 Q218 35 248 -2 L233 -16 Q208 15 170 57 L184 68 ZM70 68 L86 57 Q54 12 23 -15 Q16 -9 9 -3 Q41 27 70 68 Z" /><glyph glyph-name="" unicode="&#x4e91;" d="M166 75 Q217 14 235 -8 L217 -22 Q215 -20 212 -16 Q204 -4 199 0 Q138 0 55 -5 Q53 -5 49 -6 Q38 -7 35 -8 L26 12 Q39 17 50 30 Q73 57 98 98 L10 98 L10 116 L247 116 L247 98 L124 98 Q86 43 61 13 Q71 13 100 14 Q160 16 187 17 Q184 21 179 28 Q158 54 150 64 L166 75 ZM33 191 L225 191 L225 172 L33 172 L33 191 Z" /><glyph glyph-name="" unicode="&#x4e92;" d="M41 47 L59 170 L22 170 L22 187 L234 187 L234 170 L79 170 L74 135 L207 135 L197 5 L244 5 L244 -11 L13 -11 L13 5 L177 5 L180 47 L41 47 ZM185 118 L72 118 L64 64 L182 64 L185 118 Z" /><glyph glyph-name="" unicode="&#x4eab;" d="M121 49 L180 65 L30 65 L30 81 L213 81 L213 60 L140 39 L140 36 L247 36 L247 20 L140 20 L140 1 Q141 -27 109 -27 Q92 -27 75 -27 Q75 -24 73 -17 Q72 -11 71 -7 Q87 -8 105 -8 Q123 -9 121 4 L121 20 L8 20 L8 36 L121 36 L121 49 ZM44 147 L210 147 L210 98 L44 98 L44 147 ZM11 179 L122 179 Q121 181 119 185 Q116 192 109 204 L128 211 Q137 193 142 184 L131 179 L245 179 L245 163 L11 163 L11 179 ZM62 132 L62 113 L192 113 L192 132 L62 132 Z" /><glyph glyph-name="" unicode="&#x4ee5;" d="M191 202 L210 202 Q210 169 209 138 Q206 81 193 52 Q206 39 231 12 Q244 0 250 -7 L233 -22 Q223 -10 205 11 Q190 27 184 35 Q162 0 100 -30 Q94 -23 87 -13 Q193 28 189 138 Q191 176 191 202 ZM116 68 Q116 53 118 45 Q111 41 90 28 Q51 3 45 0 Q38 -5 30 -11 L16 6 Q27 17 27 31 L27 199 L47 199 L47 26 Q96 56 116 68 ZM105 208 Q125 175 141 146 L123 136 Q99 182 89 199 L105 208 Z" /><glyph glyph-name="" unicode="&#x4efb;" d="M87 2 L158 2 L158 78 L82 78 L82 97 L158 97 L158 169 Q127 166 94 165 Q93 178 91 184 Q156 187 235 195 L239 176 Q212 173 177 170 L177 97 L249 97 L249 78 L177 78 L177 2 L245 2 L245 -14 L87 -14 L87 2 ZM7 92 Q43 139 66 207 L86 200 Q76 173 62 146 L62 -29 L44 -29 L44 111 Q43 109 40 105 Q30 88 15 70 Q11 79 7 92 Z" /><glyph glyph-name="" unicode="&#x4f17;" d="M145 206 Q142 200 139 197 Q176 151 248 126 Q242 117 238 106 Q167 136 128 182 Q91 134 19 101 Q14 111 8 120 Q87 151 126 210 L145 206 ZM161 121 L180 121 Q180 117 179 110 Q179 103 178 99 Q197 13 249 -9 Q242 -18 236 -26 Q188 4 173 61 Q161 1 107 -30 Q99 -20 94 -15 Q165 18 161 121 ZM70 118 L89 118 Q89 99 86 84 Q102 68 131 37 Q130 38 134 34 L119 20 Q109 33 91 53 Q85 60 82 64 Q71 12 21 -27 Q14 -18 6 -11 Q71 29 70 118 Z" /><glyph glyph-name="" unicode="&#x4f1a;" d="M164 41 Q197 10 225 -16 L209 -30 Q206 -27 200 -20 Q194 -14 191 -10 Q110 -14 68 -19 Q57 -21 48 -24 L36 -4 Q47 0 56 7 Q73 21 98 54 L17 54 L17 72 L239 72 L239 54 L122 54 Q93 17 74 0 Q136 2 176 4 Q164 16 151 29 L164 41 ZM124 211 L144 207 Q143 206 142 205 Q140 200 138 199 Q185 142 250 118 Q249 116 244 108 Q239 102 237 98 Q169 130 128 186 Q81 131 19 95 Q13 103 6 113 Q80 151 124 211 ZM61 122 L194 122 L194 104 L61 104 L61 122 Z" /><glyph glyph-name="" unicode="&#x4f1f;" d="M79 176 L141 176 L141 207 L160 207 L160 176 L235 176 L235 159 L160 159 L160 132 L225 132 L225 114 L160 114 L160 87 L236 87 Q236 66 234 36 Q235 1 199 2 Q185 2 171 2 Q170 11 167 21 Q180 20 197 20 Q217 19 216 38 Q217 45 217 69 L160 69 L160 -28 L141 -28 L141 69 L72 69 L72 87 L141 87 L141 114 L87 114 L87 132 L141 132 L141 159 L79 159 L79 176 ZM7 87 Q39 133 61 207 L80 201 Q73 177 61 147 L61 -28 L42 -28 L42 108 Q26 80 16 66 Q12 76 7 87 Z" /><glyph glyph-name="" unicode="&#x4f53;" d="M58 26 Q108 70 131 140 L75 140 L75 158 L145 158 L145 207 L164 207 L164 158 L239 158 L239 140 L178 140 Q202 65 250 32 Q245 28 236 14 Q183 64 164 140 L164 38 L202 38 L202 21 L164 21 L164 -28 L145 -28 L145 21 L107 21 L107 38 L145 38 L145 140 Q129 69 72 10 Q63 22 58 26 ZM6 91 Q42 139 62 208 L80 202 Q70 169 56 140 L56 -28 L38 -28 L38 105 Q36 101 31 94 Q27 87 15 71 Q14 72 12 78 Q7 90 6 91 Z" /><glyph glyph-name="" unicode="&#x4f60;" d="M7 88 Q46 141 66 209 L86 203 Q73 169 62 146 L62 -28 L44 -28 L44 109 Q30 85 16 67 Q12 78 7 88 ZM209 113 L225 152 L123 152 Q111 130 98 109 Q95 112 88 117 Q85 120 83 121 Q111 160 126 208 L146 202 Q139 184 131 169 L244 169 L244 150 L226 106 L209 113 ZM155 133 L174 133 L174 7 Q177 -25 140 -25 Q118 -25 113 -25 Q113 -24 113 -22 Q112 -16 109 -5 Q128 -6 138 -6 Q156 -7 155 9 L155 133 ZM133 91 Q112 41 97 8 L79 16 Q99 55 115 97 L133 91 ZM212 98 Q232 58 248 19 L230 11 Q223 30 205 70 Q198 84 195 91 L212 98 Z" /><glyph glyph-name="" unicode="&#x4f9d;" d="M56 52 Q113 94 143 151 L74 151 L74 167 L154 167 Q148 186 139 202 L156 208 Q164 193 172 174 L156 167 L247 167 L247 151 L164 151 Q161 148 160 145 Q166 109 176 84 Q199 101 224 124 L237 110 Q225 99 194 76 Q187 70 183 67 Q202 28 248 1 Q245 0 235 -13 Q234 -15 234 -15 Q164 28 147 123 Q136 107 124 92 L124 3 Q153 20 166 28 Q168 16 170 8 Q150 -1 124 -18 Q121 -20 115 -25 Q111 -28 110 -29 L97 -13 Q106 -3 105 8 L105 71 Q82 47 66 36 Q62 44 56 52 ZM7 91 Q41 142 59 207 L77 203 Q68 172 55 143 L55 -29 L36 -29 L36 105 Q26 85 14 70 Q14 72 11 78 Q8 88 7 91 Z" /><glyph glyph-name="" unicode="&#x4fdd;" d="M92 197 L227 197 L227 114 L92 114 L92 197 ZM63 0 Q110 25 134 66 L70 66 L70 82 L150 82 L150 108 L168 108 L168 82 L248 82 L248 66 L182 66 Q207 25 249 5 Q243 -1 238 -9 Q190 16 168 64 L168 -28 L150 -28 L150 64 Q122 14 76 -14 Q70 -7 63 0 ZM7 90 Q41 141 57 207 L75 202 Q66 172 54 143 L54 -28 L36 -28 L36 105 Q26 85 14 70 Q10 80 7 90 ZM110 180 L110 131 L208 131 L208 180 L110 180 Z" /><glyph glyph-name="" unicode="&#x4fe1;" d="M93 58 L231 58 L231 -29 L212 -29 L212 -15 L112 -15 L112 -29 L93 -29 L93 58 ZM7 91 Q43 143 61 208 L80 202 Q79 199 77 194 Q70 173 57 144 L57 -29 L39 -29 L39 108 Q27 87 15 71 Q11 82 7 91 ZM112 41 L112 0 L212 0 L212 41 L112 41 ZM144 201 L160 209 Q163 204 168 195 Q173 185 175 180 L164 175 L248 175 L248 158 L77 158 L77 175 L157 175 Q151 188 144 201 ZM91 136 L233 136 L233 119 L91 119 L91 136 ZM91 97 L233 97 L233 80 L91 80 L91 97 Z" /><glyph glyph-name="" unicode="&#x4fee;" d="M96 140 Q128 173 141 208 L158 202 Q157 201 156 197 Q154 193 148 183 L227 183 L227 168 Q206 138 187 124 Q212 112 248 105 Q247 102 244 97 Q242 91 240 88 Q197 99 173 114 Q146 97 104 83 Q103 84 102 87 Q100 91 94 99 Q133 109 158 124 Q143 136 130 154 Q120 141 109 127 Q102 134 96 140 ZM7 90 Q37 142 52 208 L70 205 Q64 178 54 151 L54 -28 L36 -28 L36 109 Q27 87 15 70 Q12 79 7 90 ZM73 16 L73 169 L90 169 L90 16 L73 16 ZM227 45 L238 32 Q181 -12 103 -31 Q99 -22 94 -15 Q171 2 227 45 ZM205 74 L216 61 Q173 29 115 8 Q112 14 106 23 Q165 42 205 74 ZM182 99 L193 87 Q156 61 113 47 Q112 48 110 52 Q106 58 103 61 Q147 75 182 99 ZM207 168 L140 168 Q155 147 173 133 Q194 148 207 168 Z" /><glyph glyph-name="" unicode="&#x505c;" d="M95 151 L217 151 L217 103 L95 103 L95 151 ZM7 91 Q42 146 56 208 L74 203 Q66 176 55 147 L55 -28 L39 -28 L39 110 Q27 87 15 70 Q11 81 7 91 ZM93 53 L220 53 L220 37 L173 37 L173 2 Q174 -24 146 -25 Q133 -25 116 -25 Q116 -24 115 -20 Q114 -10 112 -6 Q125 -7 141 -7 Q156 -8 155 4 L155 37 L93 37 L93 53 ZM69 89 L245 89 L245 50 L228 50 L228 73 L86 73 L86 50 L69 50 L69 89 ZM139 204 L156 209 Q162 194 166 182 L242 182 L242 166 L75 166 L75 182 L147 182 Q146 187 141 197 Q140 202 139 204 ZM112 137 L112 118 L200 118 L200 137 L112 137 Z" /><glyph glyph-name="" unicode="&#x5076;" d="M95 -28 L78 -28 L78 79 L150 79 L150 102 L89 102 L89 195 L227 195 L227 102 L167 102 L167 79 L239 79 L239 2 Q241 -25 210 -25 Q206 -25 195 -26 Q185 -26 182 -26 Q180 -17 178 -8 Q182 -8 193 -9 Q204 -9 208 -9 Q222 -10 221 3 L221 64 L167 64 L167 32 Q171 32 178 33 Q186 33 189 33 Q188 38 184 47 Q183 50 182 51 L197 56 Q206 37 215 8 L199 3 Q199 6 197 11 Q196 16 195 18 Q183 17 145 15 Q120 13 108 12 L106 29 Q113 30 128 30 Q142 31 150 31 L150 64 L95 64 L95 -28 ZM7 91 Q41 143 58 208 L76 204 Q71 185 57 150 Q56 147 55 145 L55 -28 L37 -28 L37 108 Q26 86 15 71 Q12 80 7 91 ZM106 141 L106 118 L150 118 L150 141 L106 141 ZM167 141 L167 118 L210 118 L210 141 L167 141 ZM106 179 L106 156 L150 156 L150 179 L106 179 ZM210 179 L167 179 L167 156 L210 156 L210 179 Z" /><glyph glyph-name="" unicode="&#x50cf;" d="M65 145 Q103 171 127 209 L147 205 Q145 203 141 197 Q137 192 135 189 L202 189 L202 175 L180 152 L232 152 L232 100 L155 100 Q153 97 151 95 Q163 83 172 65 Q198 80 221 97 L232 84 Q229 82 222 78 Q209 69 202 65 Q214 24 246 1 Q239 -4 232 -11 Q203 14 188 56 Q184 53 178 50 Q182 34 182 13 Q183 -25 146 -26 Q133 -26 121 -26 Q119 -18 116 -8 Q130 -9 144 -9 Q166 -10 165 14 Q165 23 164 32 Q136 5 78 -20 Q73 -13 67 -5 Q124 14 160 49 Q158 56 155 62 Q123 32 77 14 Q72 22 66 28 Q117 47 147 75 Q146 77 143 80 Q141 83 139 84 Q119 68 77 49 Q75 52 72 56 Q68 61 66 63 Q117 82 134 100 L88 100 L88 141 Q86 139 82 136 Q77 132 75 130 Q69 138 65 145 ZM7 91 Q39 138 59 208 L78 204 Q66 171 54 141 L54 -28 L37 -28 L37 106 Q35 103 31 97 Q25 86 15 71 Q11 81 7 91 ZM179 174 L122 174 Q112 162 101 152 L159 152 L179 174 ZM216 137 L171 137 Q168 125 164 115 L216 115 L216 137 ZM105 137 L105 115 L146 115 Q152 125 154 137 L105 137 Z" /><glyph glyph-name="" unicode="&#x5148;" d="M124 208 L144 208 L144 161 L228 161 L228 143 L144 143 L144 97 L245 97 L245 79 L167 79 L167 10 Q167 -4 184 -4 L209 -4 Q226 -4 227 6 Q229 21 229 42 Q238 38 249 36 Q248 11 245 0 Q240 -21 212 -22 L180 -22 Q148 -22 148 8 L148 79 L100 79 Q101 -2 18 -29 Q13 -22 6 -12 Q82 8 81 79 L13 79 L13 97 L124 97 L124 143 L62 143 Q52 124 39 106 Q35 110 27 115 Q24 117 22 118 Q51 154 67 202 L87 196 Q80 177 72 161 L124 161 L124 208 Z" /><glyph glyph-name="" unicode="&#x514d;" d="M9 -13 Q83 11 105 60 L37 60 L37 124 Q35 122 31 119 Q28 117 20 110 Q19 111 16 115 Q10 123 7 126 Q52 156 87 209 L105 202 Q103 199 99 193 Q94 186 92 183 L187 183 L187 166 L160 140 L218 140 L218 60 L146 60 L146 12 Q144 -6 166 -5 L205 -5 Q223 -6 225 9 Q228 21 229 44 Q239 41 248 38 Q247 20 243 4 Q239 -23 209 -22 L161 -22 Q124 -25 128 11 L128 60 L126 60 Q105 2 22 -31 Q15 -21 9 -13 ZM199 123 L137 123 Q136 98 131 77 L199 77 L199 123 ZM55 123 L55 77 L112 77 Q118 98 119 123 L55 123 ZM162 167 L79 167 Q79 166 78 166 Q66 152 53 140 L135 140 L162 167 Z" /><glyph glyph-name="" unicode="&#x5165;" d="M75 194 L91 205 Q117 189 151 119 Q195 21 249 0 L232 -21 Q177 10 134 110 Q133 113 130 118 Q128 123 126 125 Q100 31 22 -23 Q16 -13 8 -5 Q85 43 113 150 Q96 180 75 194 Z" /><glyph glyph-name="" unicode="&#x5168;" d="M125 211 L145 206 Q144 205 143 202 Q141 200 140 198 Q187 143 249 120 Q242 109 236 100 Q223 106 208 115 L208 98 L138 98 L138 61 L217 61 L217 43 L138 43 L138 0 L238 0 L238 -16 L18 -16 L18 0 L118 0 L118 43 L40 43 L40 61 L118 61 L118 98 L49 98 L49 114 Q47 113 43 110 Q28 101 19 97 Q14 105 7 115 Q85 154 125 211 ZM129 184 Q99 147 51 115 L208 115 Q160 146 129 184 Z" /><glyph glyph-name="" unicode="&#x516c;" d="M161 68 Q172 55 191 32 Q218 0 233 -16 L216 -29 Q213 -26 208 -19 Q201 -10 197 -6 Q160 -7 91 -11 Q73 -12 64 -13 Q54 -13 36 -17 L27 2 Q39 7 47 15 Q82 54 113 110 L134 101 Q112 63 65 5 Q115 7 183 10 Q166 32 145 56 L161 68 ZM147 194 L165 201 Q191 134 249 100 Q242 93 234 82 Q172 126 147 194 ZM7 92 Q63 133 90 197 L109 189 Q76 120 22 77 Q16 84 7 92 Z" /><glyph glyph-name="" unicode="&#x5177;" d="M8 41 L42 41 L42 197 L214 197 L214 41 L248 41 L248 24 L8 24 L8 41 ZM59 65 L59 41 L197 41 L197 65 L59 65 ZM59 180 L59 157 L197 157 L197 180 L59 180 ZM59 142 L59 118 L197 118 L197 142 L59 142 ZM59 103 L59 80 L197 80 L197 103 L59 103 ZM94 19 L105 3 Q71 -12 20 -30 Q16 -22 10 -12 Q65 5 94 19 ZM148 2 L158 18 Q167 15 185 9 Q231 -5 244 -10 L235 -28 Q191 -10 148 2 Z" /><glyph glyph-name="" unicode="&#x517b;" d="M25 177 L87 177 Q83 181 76 189 Q69 196 66 199 L79 210 Q80 209 85 205 Q98 193 103 186 L93 177 L149 177 Q151 180 156 186 Q170 204 174 209 L191 199 Q181 187 170 177 L231 177 L231 161 L133 161 Q133 157 132 149 Q132 142 132 139 L220 139 L220 123 L129 123 Q126 111 122 101 L243 101 L243 84 L167 84 Q194 57 248 49 Q241 38 237 29 Q177 43 145 84 L114 84 Q105 69 81 55 L97 55 Q98 18 86 2 Q75 -13 38 -30 Q32 -23 26 -14 Q60 0 69 11 Q79 23 78 53 Q56 40 20 28 Q16 35 8 44 Q68 62 91 84 L13 84 L13 101 L102 101 Q107 111 110 123 L33 123 L33 139 L113 139 Q113 142 113 149 Q114 157 114 161 L25 161 L25 177 ZM157 54 L176 54 L176 -28 L157 -28 L157 54 Z" /><glyph glyph-name="" unicode="&#x51fa;" d="M33 96 L33 183 L52 183 L52 114 L118 114 L118 205 L137 205 L137 114 L203 114 L203 183 L222 183 L222 96 L137 96 L137 1 L210 1 L210 70 L229 70 L229 -24 L210 -24 L210 -16 L27 -16 L27 70 L46 70 L46 1 L118 1 L118 96 L33 96 Z" /><glyph glyph-name="" unicode="&#x51fb;" d="M27 164 L118 164 L118 208 L138 208 L138 164 L230 164 L230 146 L138 146 L138 102 L247 102 L247 84 L138 84 L138 0 L204 0 L204 63 L223 63 L223 -28 L204 -28 L204 -18 L33 -18 L33 63 L52 63 L52 0 L118 0 L118 84 L9 84 L9 102 L118 102 L118 146 L27 146 L27 164 Z" /><glyph glyph-name="" unicode="&#x5206;" d="M39 101 L200 101 Q199 78 198 41 Q197 29 197 23 Q195 -23 151 -22 Q126 -22 112 -22 Q112 -14 109 -2 Q113 -2 125 -2 Q141 -3 149 -3 Q176 -5 177 25 Q179 63 179 83 L105 83 Q103 0 26 -31 Q23 -26 15 -17 Q14 -15 13 -14 Q84 9 85 83 L39 83 L39 101 ZM144 201 L162 209 Q189 144 250 112 Q240 101 234 94 Q171 134 144 201 ZM6 109 Q62 146 95 206 L112 196 Q77 133 20 93 Q14 100 6 109 Z" /><glyph glyph-name="" unicode="&#x523b;" d="M69 202 L87 209 Q90 204 95 194 Q100 185 102 180 L91 176 L155 176 L155 158 L83 158 Q61 125 45 105 Q50 105 63 105 Q81 106 90 106 Q102 125 110 143 L128 136 Q90 59 20 13 Q17 17 10 27 Q9 28 8 29 Q49 55 79 91 Q63 90 33 88 Q28 87 26 87 L21 103 Q25 107 31 114 Q45 131 60 158 L15 158 L15 176 L84 176 Q78 187 81 181 Q78 187 69 202 ZM216 204 L235 204 L235 4 Q236 -26 204 -25 Q199 -25 185 -24 Q175 -24 172 -24 Q172 -16 168 -5 Q188 -7 197 -7 Q217 -8 216 11 L216 204 ZM149 93 Q133 61 112 35 Q120 28 135 13 Q150 -1 157 -8 L142 -22 Q134 -12 115 6 Q105 16 100 22 Q74 -7 32 -30 Q31 -29 29 -26 Q23 -18 20 -14 Q95 23 132 101 L149 93 ZM169 179 L187 179 L187 27 L169 27 L169 179 Z" /><glyph glyph-name="" unicode="&#x524d;" d="M44 -29 L26 -29 L26 131 L129 131 L129 -2 Q131 -28 104 -26 Q92 -26 77 -26 Q76 -17 73 -8 Q76 -8 86 -8 Q96 -9 100 -9 Q112 -10 111 1 L111 30 L44 30 L44 -29 ZM152 177 Q166 194 174 210 L193 199 Q176 177 169 171 L247 171 L247 154 L10 154 L10 171 L89 171 Q87 174 83 179 Q73 193 68 199 L83 209 Q100 192 107 179 L94 171 L163 171 L152 177 ZM211 138 L229 138 L229 5 Q231 -25 200 -25 Q183 -26 169 -26 Q168 -15 166 -6 Q169 -6 176 -6 Q187 -7 194 -7 Q212 -8 211 10 L211 138 ZM159 127 L177 127 L177 18 L159 18 L159 127 ZM44 115 L44 88 L111 88 L111 115 L44 115 ZM44 73 L44 46 L111 46 L111 73 L44 73 Z" /><glyph glyph-name="" unicode="&#x52a0;" d="M146 176 L238 176 L238 -22 L219 -22 L219 1 L165 1 L165 -22 L146 -22 L146 176 ZM48 207 L67 207 Q67 199 66 184 Q66 170 66 164 L122 164 Q122 101 119 15 Q118 -23 83 -22 Q72 -22 58 -22 Q58 -13 55 -1 Q70 -2 81 -2 Q100 -3 100 16 Q103 76 103 145 L66 145 Q67 25 20 -29 Q19 -27 11 -21 Q7 -17 5 -15 Q30 18 37 48 Q45 76 46 145 L13 145 L13 164 L47 164 Q47 170 47 184 Q48 199 48 207 ZM165 158 L165 18 L219 18 L219 158 L165 158 Z" /><glyph glyph-name="" unicode="&#x52a1;" d="M82 211 L100 203 Q97 200 92 193 Q89 188 87 186 L216 186 L216 169 Q188 140 153 122 Q195 106 250 103 Q243 92 237 83 Q174 92 132 111 Q86 93 15 79 Q11 88 5 96 Q65 105 111 122 Q85 138 67 162 Q43 136 25 121 Q18 128 12 134 Q53 166 82 211 ZM27 69 L98 69 Q98 70 98 71 Q100 82 100 95 L120 95 Q119 81 117 69 L214 69 Q214 59 212 37 Q211 26 211 21 Q212 -27 164 -24 Q142 -24 126 -24 Q126 -22 125 -18 Q124 -7 123 -4 Q129 -5 143 -5 Q155 -6 163 -6 Q192 -9 193 22 Q193 26 194 37 Q194 49 194 52 L114 52 Q102 -4 24 -31 Q18 -23 12 -15 Q83 7 94 52 L27 52 L27 69 ZM189 169 L82 169 Q102 146 132 131 Q165 147 189 169 Z" /><glyph glyph-name="" unicode="&#x52a8;" d="M157 208 L177 208 Q177 198 176 180 Q176 165 176 157 L240 157 Q240 154 240 148 Q238 46 236 19 Q235 -22 199 -22 Q185 -22 171 -22 Q169 -12 167 -1 Q187 -3 197 -3 Q216 -3 217 19 Q221 89 221 140 L175 140 Q175 130 175 119 Q174 24 119 -30 Q113 -22 104 -14 Q154 27 156 119 Q156 128 156 140 L119 140 L119 157 L157 157 Q157 182 157 208 ZM94 74 Q105 51 121 15 Q119 18 123 9 Q119 8 110 4 Q106 2 104 1 Q103 6 101 10 Q58 6 18 0 L9 20 Q20 27 26 41 Q39 69 51 101 L9 101 L9 119 L126 119 L126 101 L71 101 Q53 53 35 21 Q50 22 83 25 Q91 26 95 26 Q92 33 86 47 Q81 60 78 67 L94 74 ZM20 187 L117 187 L117 169 L20 169 L20 187 Z" /><glyph glyph-name="" unicode="&#x52a9;" d="M8 13 Q17 15 28 15 L28 191 L113 191 L113 26 Q122 28 129 29 Q129 27 129 21 Q128 15 128 12 Q114 10 70 4 Q26 -2 11 -4 L8 13 ZM157 206 L176 206 Q176 204 176 197 Q175 171 175 155 L235 155 Q233 69 230 16 Q231 -25 195 -24 Q180 -24 164 -24 Q164 -19 162 -11 Q161 -4 161 -2 Q179 -4 191 -4 Q212 -5 212 19 Q216 81 216 138 L174 138 Q174 127 173 118 Q174 14 120 -29 Q115 -24 105 -16 Q155 19 155 118 Q155 121 155 127 Q156 134 156 138 L126 138 L126 155 L156 155 Q157 177 157 206 ZM46 18 Q54 19 71 21 Q88 23 96 24 L96 63 L46 63 L46 18 ZM46 175 L46 135 L96 135 L96 175 L46 175 ZM46 119 L46 79 L96 79 L96 119 L46 119 Z" /><glyph glyph-name="" unicode="&#x52c7;" d="M31 153 L104 153 Q96 156 78 162 Q63 167 57 169 L67 181 Q76 178 101 169 Q119 162 128 159 L184 182 L30 182 L30 197 L219 197 L219 180 L152 153 L224 153 L224 57 L207 57 L207 72 L136 72 L136 62 L119 62 L119 72 L49 72 L49 57 L31 57 L31 153 ZM25 42 L94 42 Q95 45 95 51 Q96 56 96 59 L115 59 Q115 56 114 51 Q114 45 113 42 L223 42 Q223 31 219 3 Q217 -26 180 -24 Q151 -26 134 -24 Q133 -15 131 -5 Q152 -7 178 -7 Q199 -8 201 6 Q203 17 204 27 L109 27 Q100 -12 22 -30 Q18 -20 12 -12 Q80 0 90 27 L25 27 L25 42 ZM207 139 L136 139 L136 120 L207 120 L207 139 ZM136 105 L136 86 L207 86 L207 105 L136 105 ZM49 139 L49 120 L119 120 L119 139 L49 139 ZM49 105 L49 86 L119 86 L119 105 L49 105 Z" /><glyph glyph-name="" unicode="&#x5373;" d="M89 67 Q124 27 139 5 L123 -5 Q117 4 105 19 Q101 17 94 14 Q72 4 44 -8 Q37 -12 29 -18 L16 -3 Q24 2 24 14 L24 193 L121 193 L121 74 L42 74 L42 8 Q60 17 94 33 Q88 41 76 55 Q75 57 75 57 L89 67 ZM148 190 L233 190 L233 45 Q234 12 203 13 Q190 12 176 12 Q175 23 172 33 Q188 32 198 32 Q216 31 215 47 L215 172 L167 172 L167 -28 L148 -28 L148 190 ZM42 176 L42 142 L103 142 L103 176 L42 176 ZM42 91 L103 91 L103 125 L42 125 L42 91 Z" /><glyph glyph-name="" unicode="&#x5386;" d="M125 165 L145 165 Q145 164 145 158 Q144 135 144 122 L229 122 Q226 55 224 27 Q224 -23 179 -21 Q159 -21 143 -21 Q143 -19 142 -16 Q141 -3 140 0 Q159 0 177 0 Q205 -4 205 29 Q206 50 208 103 L143 103 Q144 10 62 -29 Q56 -21 48 -12 Q126 25 123 103 L69 103 L69 122 L123 122 Q124 149 125 165 ZM55 109 Q55 55 48 27 Q41 -2 22 -29 Q19 -26 13 -19 Q8 -14 7 -13 Q24 10 30 33 Q35 56 35 105 L35 193 L246 193 L246 174 L55 174 L55 109 Z" /><glyph glyph-name="" unicode="&#x53cb;" d="M88 209 L109 206 Q106 188 103 171 L244 171 L244 153 L100 153 Q96 134 91 117 L218 117 L218 99 Q202 51 165 20 Q199 0 247 -7 Q238 -21 232 -28 Q184 -13 150 8 Q111 -14 62 -30 Q56 -21 49 -11 Q101 2 134 21 Q102 51 87 99 L86 99 Q62 26 19 -19 Q13 -11 6 -3 Q59 50 80 153 L15 153 L15 171 L83 171 Q86 189 88 209 ZM196 99 L105 99 Q120 57 150 33 Q184 59 196 99 Z" /><glyph glyph-name="" unicode="&#x53cd;" d="M38 191 Q125 192 226 201 L233 184 Q149 177 57 174 L57 132 L222 132 L222 115 Q200 59 162 24 Q193 4 249 -7 Q242 -16 234 -28 Q180 -11 145 11 Q111 -12 59 -30 Q47 -14 45 -12 Q97 2 130 24 Q97 53 76 115 L57 115 Q57 61 49 31 Q42 1 20 -29 Q18 -28 13 -23 Q7 -17 5 -16 Q25 9 31 36 Q38 62 38 114 L38 191 ZM200 115 L96 115 Q114 63 145 36 Q182 67 200 115 Z" /><glyph glyph-name="" unicode="&#x53d1;" d="M40 153 L92 153 Q92 155 93 158 Q97 176 102 209 L123 206 Q120 191 114 161 Q113 156 112 153 L246 153 L246 135 L108 135 Q107 130 103 120 Q100 110 98 105 L218 105 L218 88 Q203 48 168 19 Q194 1 248 -7 Q245 -12 236 -24 Q237 -22 233 -27 Q186 -14 152 7 Q122 -10 63 -29 Q57 -20 48 -12 Q115 5 136 19 Q106 45 91 86 Q69 28 20 -19 Q14 -10 7 -3 Q68 55 87 135 L20 135 L20 154 Q32 179 38 200 L58 195 Q55 189 49 175 Q43 158 40 153 ZM196 88 L109 88 Q122 50 152 29 Q185 56 196 88 ZM160 192 L170 206 Q197 189 216 174 L203 158 Q201 159 198 162 Q173 184 160 192 Z" /><glyph glyph-name="" unicode="&#x53d7;" d="M46 67 L46 84 L199 84 L199 67 Q178 36 145 13 Q172 -1 248 -8 Q242 -18 237 -27 Q157 -15 126 2 Q90 -16 19 -31 Q12 -17 8 -13 Q75 -1 109 14 Q82 34 62 67 L46 67 ZM17 127 L165 127 Q184 156 196 177 L215 168 Q206 154 185 127 L239 127 L239 78 L220 78 L220 111 L36 111 L36 78 L17 78 L17 127 ZM28 176 Q28 178 27 182 Q26 191 25 194 Q132 194 224 201 L229 184 Q140 179 28 176 ZM177 67 L82 67 Q101 40 127 23 Q155 39 177 67 ZM110 168 L126 175 Q138 150 143 138 L125 131 Q119 148 110 168 ZM40 163 L56 172 Q62 164 72 148 Q76 142 78 139 L61 130 Q51 147 40 163 Z" /><glyph glyph-name="" unicode="&#x53d8;" d="M37 65 L37 82 L201 82 L201 65 Q178 34 145 13 Q175 -1 248 -8 Q240 -20 237 -27 Q158 -16 126 3 Q86 -16 19 -29 Q12 -17 8 -12 Q77 0 108 14 Q82 34 62 65 L37 65 ZM113 205 L131 210 Q132 207 134 203 Q141 187 143 180 L129 176 L243 176 L243 159 L166 159 L166 93 L147 93 L147 159 L109 159 L109 93 L90 93 L90 159 L12 159 L12 176 L124 176 Q119 191 113 205 ZM177 65 L84 65 Q102 40 127 24 Q158 42 177 65 ZM182 133 L195 145 Q209 133 235 106 Q242 99 246 95 L231 82 Q208 108 182 133 ZM57 146 L72 134 Q54 113 24 83 Q14 93 9 97 Q36 119 57 146 Z" /><glyph glyph-name="" unicode="&#x53db;" d="M120 188 Q185 191 237 199 L244 180 Q179 174 137 172 L137 132 L234 132 L234 118 Q228 62 201 26 Q220 2 248 -8 Q239 -20 234 -26 Q208 -8 190 13 Q162 -14 134 -28 Q129 -21 121 -12 Q160 6 179 26 Q155 61 150 116 L137 116 L137 109 Q137 56 128 30 Q120 3 94 -25 Q93 -24 91 -21 Q83 -13 80 -11 Q105 12 112 36 Q120 59 120 109 L120 188 ZM17 123 L55 123 Q56 148 56 205 L73 205 Q73 152 72 123 L107 123 L107 106 L72 106 Q72 100 71 89 Q71 77 70 72 L110 72 L110 55 L68 55 Q63 6 23 -29 Q20 -26 14 -20 Q11 -17 9 -15 Q46 12 50 55 L12 55 L12 72 L52 72 Q54 87 54 106 L17 106 L17 123 ZM216 116 L166 116 Q171 69 190 40 Q211 72 216 116 ZM78 141 Q85 156 94 184 Q96 189 97 191 L114 186 Q106 164 93 135 L78 141 ZM13 185 L28 190 Q32 182 39 163 Q45 149 48 142 L31 135 Q26 152 16 178 Q14 183 13 185 Z" /><glyph glyph-name="" unicode="&#x53e6;" d="M39 198 L217 198 L217 112 L39 112 L39 198 ZM17 80 L93 80 L95 103 L115 103 L112 80 L230 80 Q227 46 226 26 Q226 -26 178 -24 Q143 -24 131 -24 Q129 -12 127 -2 Q154 -5 177 -5 Q207 -8 207 27 Q210 56 209 62 L109 62 Q101 -2 22 -29 Q16 -21 9 -14 Q83 6 90 62 L17 62 L17 80 ZM58 181 L58 129 L199 129 L199 181 L58 181 Z" /><glyph glyph-name="" unicode="&#x53ea;" d="M40 192 L218 192 L218 69 L40 69 L40 192 ZM59 174 L59 87 L198 87 L198 174 L59 174 ZM162 61 Q208 23 248 -12 L231 -28 Q198 4 147 47 L162 61 ZM90 60 L108 48 Q76 12 24 -29 L7 -14 Q50 15 90 60 Z" /><glyph glyph-name="" unicode="&#x53ef;" d="M36 135 L142 135 L142 39 L54 39 L54 22 L36 22 L36 135 ZM9 189 L248 189 L248 171 L207 171 L207 7 Q208 -25 174 -24 Q163 -25 132 -25 Q131 -15 128 -3 Q154 -5 168 -5 Q189 -6 188 12 L188 171 L9 171 L9 189 ZM54 118 L54 57 L123 57 L123 118 L54 118 Z" /><glyph glyph-name="" unicode="&#x540c;" d="M43 -25 L25 -25 L25 195 L231 195 L231 6 Q233 -24 199 -24 Q177 -24 163 -24 Q162 -20 160 -9 Q159 -6 159 -4 Q167 -5 195 -5 Q213 -6 212 8 L212 177 L43 177 L43 -25 ZM76 102 L179 102 L179 23 L76 23 L76 102 ZM94 85 L94 41 L161 41 L161 85 L94 85 ZM57 148 L199 148 L199 130 L57 130 L57 148 Z" /><glyph glyph-name="" unicode="&#x5411;" d="M44 -25 L25 -25 L25 172 L99 172 Q103 188 105 209 L125 207 Q124 204 123 197 Q120 180 118 172 L230 172 L230 5 Q231 -24 201 -24 Q179 -24 166 -24 Q164 -13 162 -4 Q172 -5 195 -5 Q213 -6 211 7 L211 154 L44 154 L44 -25 ZM78 119 L178 119 L178 29 L78 29 L78 119 ZM96 102 L96 47 L159 47 L159 102 L96 102 Z" /><glyph glyph-name="" unicode="&#x542f;" d="M120 204 L137 210 Q145 192 150 180 L234 180 L234 109 L54 109 L54 100 Q56 20 22 -29 Q20 -27 15 -24 Q8 -18 6 -16 Q24 12 29 36 Q35 59 35 102 L35 180 L130 180 Q129 183 126 190 Q122 199 120 204 ZM231 72 L231 -29 L212 -29 L212 -13 L90 -13 L90 -29 L71 -29 L71 72 L231 72 ZM90 56 L90 1 L212 1 L212 56 L90 56 ZM54 163 L54 125 L215 125 L215 163 L54 163 Z" /><glyph glyph-name="" unicode="&#x5438;" d="M62 -13 Q95 21 104 59 Q115 96 114 176 L93 176 L93 193 L214 193 L214 175 L190 126 L230 126 L230 109 Q217 63 193 30 Q215 8 249 -8 Q247 -11 242 -17 Q238 -23 235 -26 Q199 -3 180 15 Q156 -8 121 -29 Q119 -27 116 -22 Q110 -16 108 -14 Q147 8 167 30 Q145 57 130 102 Q126 24 78 -27 Q70 -19 62 -13 ZM19 185 L84 185 L84 36 L37 36 L37 20 L19 20 L19 185 ZM170 127 L193 176 L133 176 Q133 158 132 143 Q151 80 179 45 Q199 69 210 109 L170 109 L170 127 ZM37 169 L37 53 L66 53 L66 169 L37 169 Z" /><glyph glyph-name="" unicode="&#x5468;" d="M49 109 Q49 51 43 25 Q38 -2 20 -28 Q17 -24 10 -18 Q8 -16 7 -15 Q23 7 27 29 Q31 51 31 104 L31 198 L235 198 L235 8 Q236 -26 201 -25 Q196 -26 177 -25 Q170 -25 167 -25 Q166 -18 164 -5 Q178 -7 198 -7 Q218 -8 217 10 L217 181 L49 181 L49 109 ZM80 76 L186 76 L186 9 L80 9 L80 76 ZM72 153 L124 153 L124 174 L142 174 L142 153 L194 153 L194 136 L142 136 L142 112 L205 112 L205 95 L61 95 L61 112 L124 112 L124 136 L72 136 L72 153 ZM98 59 L98 26 L168 26 L168 59 L98 59 Z" /><glyph glyph-name="" unicode="&#x5473;" d="M71 3 Q119 39 141 93 L91 93 L91 110 L154 110 L154 153 L100 153 L100 169 L154 169 L154 208 L172 208 L172 169 L227 169 L227 153 L172 153 L172 110 L241 110 L241 93 L184 93 Q205 39 251 8 Q239 -3 236 -7 Q192 28 172 86 L172 -28 L154 -28 L154 86 Q130 26 85 -11 Q79 -4 71 3 ZM22 181 L86 181 L86 34 L39 34 L39 14 L22 14 L22 181 ZM39 164 L39 51 L68 51 L68 164 L39 164 Z" /><glyph glyph-name="" unicode="&#x547d;" d="M32 97 L110 97 L110 -5 L92 -5 L92 9 L50 9 L50 -7 L32 -7 L32 97 ZM137 99 L225 99 L225 31 Q226 0 198 0 Q180 0 169 0 Q169 6 166 18 Q168 18 176 18 Q188 17 192 17 Q207 17 207 35 L207 82 L155 82 L155 -29 L137 -29 L137 99 ZM142 208 Q141 205 138 202 Q190 153 248 135 Q241 124 237 116 Q173 144 128 190 Q89 145 18 113 Q13 122 8 130 Q83 162 123 212 L142 208 ZM50 80 L50 26 L92 26 L92 80 L50 80 ZM71 139 L186 139 L186 122 L71 122 L71 139 Z" /><glyph glyph-name="" unicode="&#x548c;" d="M131 179 L237 179 L237 -21 L218 -21 L218 1 L149 1 L149 -21 L131 -21 L131 179 ZM149 162 L149 18 L218 18 L218 162 L149 162 ZM8 135 L55 135 L55 174 Q34 171 16 168 Q14 176 11 185 Q58 190 109 202 L114 185 Q96 180 74 177 L74 135 L118 135 L118 119 L74 119 L74 88 L83 97 Q86 95 92 89 Q113 71 121 62 L107 48 Q94 64 74 82 L74 -29 L55 -29 L55 88 Q41 50 16 17 Q12 26 7 38 Q36 73 51 119 L8 119 L8 135 Z" /><glyph glyph-name="" unicode="&#x54c1;" d="M45 197 L211 197 L211 109 L45 109 L45 197 ZM21 82 L113 82 L113 -28 L94 -28 L94 -12 L39 -12 L39 -28 L21 -28 L21 82 ZM143 82 L235 82 L235 -28 L217 -28 L217 -12 L162 -12 L162 -28 L143 -28 L143 82 ZM64 180 L64 126 L192 126 L192 180 L64 180 ZM162 65 L162 2 L217 2 L217 65 L162 65 ZM39 65 L39 3 L94 3 L94 65 L39 65 Z" /><glyph glyph-name="" unicode="&#x54ea;" d="M78 134 L96 134 Q97 155 97 178 L78 178 L78 193 L154 193 Q153 96 151 13 Q151 -21 118 -20 Q116 -20 107 -21 Q99 -21 96 -21 Q96 -20 95 -15 Q93 -6 92 -2 Q98 -3 116 -3 Q136 -5 134 14 Q135 33 135 60 L110 60 Q107 9 63 -30 Q62 -29 57 -23 Q52 -17 51 -15 Q89 12 93 60 L78 60 L78 75 L94 75 Q96 96 96 119 L78 119 L78 134 ZM18 183 L71 183 L71 31 L35 31 L35 17 L18 17 L18 183 ZM245 50 Q248 10 218 7 Q204 7 192 7 Q191 20 189 26 Q195 25 212 25 Q232 24 227 53 Q225 78 197 107 Q214 146 223 177 L187 177 L187 -30 L170 -30 L170 193 L241 193 L241 177 Q240 174 238 168 Q224 130 216 111 Q244 81 245 50 ZM35 167 L35 47 L55 47 L55 167 L35 167 ZM136 75 Q136 97 136 119 L112 119 Q112 111 111 96 Q111 82 111 75 L136 75 ZM137 178 L113 178 Q113 155 113 134 L136 134 Q137 154 137 178 Z" /><glyph glyph-name="" unicode="&#x5524;" d="M89 139 Q117 166 138 209 L157 206 Q153 194 144 182 L212 182 L212 166 L185 133 L230 133 L230 60 L247 60 L247 44 L178 44 Q197 3 249 -10 Q245 -19 240 -28 Q183 -8 166 32 Q151 -6 84 -29 Q80 -20 74 -12 Q141 6 152 44 L86 44 L86 60 L102 60 L102 128 Q96 134 89 139 ZM20 181 L78 181 L78 23 L37 23 L37 2 L20 2 L20 181 ZM37 164 L37 39 L61 39 L61 164 L37 164 ZM213 117 L175 117 L175 83 Q175 71 173 60 L213 60 L213 117 ZM119 117 L119 60 L156 60 Q157 71 157 84 L157 117 L119 117 ZM190 166 L134 166 Q123 150 108 133 L165 133 L190 166 Z" /><glyph glyph-name="" unicode="&#x552f;" d="M22 181 L82 181 L82 114 Q107 149 130 208 L147 202 Q144 196 138 182 Q132 169 129 162 L243 162 L243 146 L189 146 L189 109 L241 109 L241 92 L189 92 L189 56 L241 56 L241 39 L189 39 L189 2 L246 2 L246 -12 L125 -12 L125 -28 L107 -28 L107 121 Q105 118 103 113 Q100 109 93 99 Q88 104 82 109 L82 2 L65 2 L65 22 L39 22 L39 0 L22 0 L22 181 ZM39 164 L39 39 L65 39 L65 164 L39 164 ZM125 39 L125 2 L171 2 L171 39 L125 39 ZM125 146 L125 109 L171 109 L171 146 L125 146 ZM125 92 L125 56 L171 56 L171 92 L125 92 ZM162 199 L177 208 Q191 190 201 174 L185 164 Q184 165 183 167 Q171 188 162 199 Z" /><glyph glyph-name="" unicode="&#x559c;" d="M70 74 L79 81 L44 81 L44 127 L212 127 L212 81 L179 81 L189 74 Q187 71 182 66 Q176 60 174 57 L247 57 L247 42 L10 42 L10 57 L85 57 Q78 64 70 74 ZM42 28 L214 28 L214 -28 L197 -28 L197 -19 L59 -19 L59 -28 L42 -28 L42 28 ZM31 156 L119 156 L119 171 L16 171 L16 186 L119 186 L119 207 L137 207 L137 186 L241 186 L241 171 L137 171 L137 156 L225 156 L225 141 L31 141 L31 156 ZM59 13 L59 -5 L197 -5 L197 13 L59 13 ZM61 112 L61 95 L195 95 L195 112 L61 112 ZM85 81 Q97 69 106 57 L152 57 Q163 69 172 81 L85 81 Z" /><glyph glyph-name="" unicode="&#x56db;" d="M27 190 L235 190 L235 -28 L216 -28 L216 -13 L46 -13 L46 -28 L27 -28 L27 190 ZM184 69 Q201 69 211 69 L208 50 L182 50 Q147 49 148 83 L148 172 L113 172 Q113 156 113 142 Q112 94 102 73 Q93 52 62 32 Q56 39 48 47 Q77 64 84 81 Q93 98 94 142 Q94 156 94 172 L46 172 L46 3 L216 3 L216 172 L167 172 L167 84 Q165 67 184 69 Z" /><glyph glyph-name="" unicode="&#x5728;" d="M100 208 L121 205 Q120 201 116 192 Q113 183 111 178 L247 178 L247 161 L103 161 Q86 126 65 96 L65 -27 L47 -27 L47 72 Q33 56 19 42 Q15 51 7 60 Q53 100 82 161 L19 161 L19 178 L90 178 Q97 193 100 208 ZM150 145 L169 145 L169 96 L233 96 L233 79 L169 79 L169 6 L247 6 L247 -9 L74 -9 L74 6 L150 6 L150 79 L87 79 L87 96 L150 96 L150 145 Z" /><glyph glyph-name="" unicode="&#x5730;" d="M81 104 L102 112 L102 179 L121 179 L121 120 L158 133 L158 207 L177 207 L177 141 L236 163 Q236 155 235 138 Q234 107 233 88 Q233 49 203 52 Q197 51 185 51 Q184 60 181 71 Q183 71 190 71 Q198 70 201 70 Q214 69 215 89 Q216 107 216 139 L177 123 L177 22 L158 22 L158 116 L121 101 L121 18 Q121 -4 144 -2 L197 -2 Q224 -3 226 15 Q230 35 231 51 Q240 48 251 45 Q248 21 244 5 Q240 -21 202 -20 L140 -20 Q101 -21 102 14 L102 93 L84 86 L81 104 ZM6 14 Q14 16 31 22 Q37 24 40 25 L40 122 L9 122 L9 139 L40 139 L40 206 L58 206 L58 139 L87 139 L87 122 L58 122 L58 31 Q64 33 76 37 Q85 40 90 42 Q90 31 91 24 Q49 8 13 -3 L6 14 Z" /><glyph glyph-name="" unicode="&#x575a;" d="M110 175 L110 191 L229 191 L229 175 Q212 138 186 117 Q210 102 248 94 Q242 85 239 76 Q199 87 172 106 Q148 90 111 77 Q110 81 105 89 Q103 92 102 93 Q135 104 158 117 Q135 138 121 175 L110 175 ZM119 74 L138 74 L138 52 L225 52 L225 35 L138 35 L138 0 L247 0 L247 -16 L9 -16 L9 0 L119 0 L119 35 L31 35 L31 52 L119 52 L119 74 ZM78 205 L96 205 L96 72 L78 72 L78 205 ZM27 194 L44 194 L44 78 L27 78 L27 194 ZM210 175 L139 175 Q151 147 173 127 Q194 144 210 175 Z" /><glyph glyph-name="" unicode="&#x578b;" d="M20 194 L146 194 L146 178 L120 178 L120 138 L154 138 L154 122 L120 122 L120 70 L102 70 L102 122 L63 122 Q61 87 29 62 Q17 75 16 75 Q45 98 45 122 L10 122 L10 138 L47 138 Q47 146 47 156 L47 178 L20 178 L20 194 ZM119 66 L138 66 L138 47 L225 47 L225 31 L138 31 L138 -1 L247 -1 L247 -17 L9 -17 L9 -1 L119 -1 L119 31 L31 31 L31 47 L119 47 L119 66 ZM231 204 L231 98 Q232 67 204 67 Q189 66 172 66 Q171 70 169 78 Q168 83 168 85 Q170 85 177 85 Q192 84 197 84 Q214 83 213 100 L213 204 L231 204 ZM65 156 Q65 152 64 146 Q64 140 64 138 L102 138 L102 178 L65 178 L65 156 ZM164 190 L182 190 L182 106 L164 106 L164 190 Z" /><glyph glyph-name="" unicode="&#x58f0;" d="M41 105 L220 105 L220 26 L201 26 L201 38 L58 38 Q53 -4 21 -29 Q15 -22 8 -13 Q44 9 41 77 L41 105 ZM33 142 L121 142 L121 166 L13 166 L13 183 L121 183 L121 208 L141 208 L141 183 L248 183 L248 166 L141 166 L141 142 L228 142 L228 125 L33 125 L33 142 ZM201 89 L140 89 L140 54 L201 54 L201 89 ZM60 77 Q60 65 60 54 L121 54 L121 89 L60 89 L60 77 Z" /><glyph glyph-name="" unicode="&#x5904;" d="M70 204 Q65 180 59 159 L123 159 L123 141 Q114 73 89 34 Q111 9 141 2 Q175 -3 249 0 Q243 -14 242 -20 Q177 -22 139 -15 Q102 -8 78 18 Q63 -1 25 -30 Q14 -19 9 -15 Q45 8 65 35 Q48 61 37 100 Q33 91 25 74 Q22 68 20 65 Q15 72 7 82 Q36 134 51 207 L70 204 ZM156 207 L175 207 L175 125 L185 137 Q207 122 246 92 L233 75 Q209 97 175 121 L175 9 L156 9 L156 207 ZM103 141 L53 141 Q50 134 48 126 Q58 81 76 51 Q99 87 103 141 Z" /><glyph glyph-name="" unicode="&#x591a;" d="M164 114 L182 109 Q171 99 159 91 L237 91 L237 74 Q161 -9 27 -30 Q25 -24 17 -14 Q144 5 212 74 L135 74 Q125 68 113 61 Q116 58 122 52 Q133 42 137 37 L122 24 Q116 31 99 51 Q98 52 97 53 Q72 40 42 28 Q37 35 32 43 Q122 78 164 114 ZM126 211 L147 208 Q134 195 121 184 L228 184 L228 168 Q144 103 23 68 Q22 71 15 80 Q13 83 12 84 Q128 116 199 167 L99 167 Q98 167 96 165 Q93 164 92 163 Q99 157 111 146 Q118 140 121 137 L106 124 Q92 140 78 154 Q59 142 36 132 Q34 135 30 139 Q27 142 24 146 Q86 172 126 211 Z" /><glyph glyph-name="" unicode="&#x5927;" d="M8 -10 Q109 34 115 122 L12 122 L12 141 L116 141 Q116 177 116 207 L138 207 Q138 197 137 171 Q137 149 137 141 L244 141 L244 122 L137 122 Q152 26 249 -4 Q247 -6 244 -11 Q237 -19 234 -25 Q150 8 128 89 Q112 15 23 -28 Q20 -25 15 -19 Q10 -12 8 -10 Z" /><glyph glyph-name="" unicode="&#x5929;" d="M7 -10 Q99 28 113 96 L10 96 L10 114 L116 114 Q116 117 116 120 Q116 141 116 174 L24 174 L24 192 L233 192 L233 174 L138 174 Q138 164 137 143 Q137 123 137 114 L246 114 L246 96 L140 96 Q165 17 248 -5 Q242 -15 235 -26 Q150 7 128 78 Q109 12 21 -29 Q15 -20 7 -10 Z" /><glyph glyph-name="" unicode="&#x592b;" d="M27 166 L117 166 Q117 189 117 207 L138 207 Q138 190 138 166 L230 166 L230 148 L137 148 Q137 122 137 101 L244 101 L244 82 L141 82 Q165 16 249 -6 Q247 -9 241 -17 Q236 -23 234 -26 Q152 1 129 70 Q112 12 23 -29 Q22 -28 20 -26 Q12 -15 8 -11 Q99 25 113 82 L12 82 L12 101 L116 101 L116 102 Q116 108 116 122 Q117 139 117 148 L27 148 L27 166 Z" /><glyph glyph-name="" unicode="&#x5947;" d="M22 134 Q93 142 111 166 L26 166 L26 183 L120 183 Q124 193 124 208 L143 208 Q143 193 140 183 L232 183 L232 166 L133 166 Q133 164 131 162 Q172 149 225 131 L216 114 Q194 123 140 141 Q126 146 119 148 Q94 128 31 116 Q30 119 25 128 Q23 132 22 134 ZM40 73 L143 73 L143 6 L58 6 L58 -8 L40 -8 L40 73 ZM11 111 L246 111 L246 94 L208 94 L208 4 Q209 -27 176 -26 Q156 -28 141 -26 Q141 -24 140 -21 Q138 -11 137 -6 Q153 -8 170 -8 Q192 -10 190 9 L190 94 L11 94 L11 111 ZM58 57 L58 22 L125 22 L125 57 L58 57 Z" /><glyph glyph-name="" unicode="&#x5951;" d="M247 -10 Q241 -19 238 -28 Q158 -14 128 32 Q108 -11 18 -30 Q14 -21 8 -12 Q96 2 112 39 L15 39 L15 55 L119 55 Q121 63 122 72 L141 72 Q140 63 137 55 L241 55 L241 39 L143 39 Q172 -1 247 -10 ZM20 184 L63 184 L63 206 L81 206 L81 184 L124 184 L124 168 L81 168 L81 146 L119 146 L119 131 L81 131 L81 108 L126 108 L126 93 L81 93 L81 69 L63 69 L63 93 L18 93 L18 108 L63 108 L63 131 L26 131 L26 146 L63 146 L63 168 L20 168 L20 184 ZM133 174 L133 191 L233 191 Q233 187 233 179 Q231 132 229 112 Q229 78 199 78 Q184 78 170 78 Q170 82 168 91 Q167 95 167 97 Q171 97 179 97 Q190 96 195 96 Q211 95 212 113 Q213 127 214 161 Q214 155 215 174 L174 174 Q174 107 135 74 Q133 77 129 81 Q124 86 122 88 Q157 113 157 174 L133 174 Z" /><glyph glyph-name="" unicode="&#x597d;" d="M110 15 L95 0 Q89 5 77 16 Q71 21 68 24 Q55 1 20 -25 Q15 -18 9 -9 Q37 10 55 36 Q35 53 18 67 Q29 107 34 139 L8 139 L8 157 L37 157 Q39 166 41 183 Q44 200 45 208 L64 206 Q63 199 60 184 Q58 165 56 157 L102 157 L102 141 Q96 75 78 40 Q87 33 105 19 Q108 16 110 15 ZM168 137 Q181 148 207 169 Q191 156 212 174 L110 174 L110 191 L239 191 L239 172 Q228 162 200 139 Q191 132 187 128 L187 99 L248 99 L248 82 L187 82 L187 6 Q188 -24 155 -24 Q151 -24 144 -24 Q132 -25 124 -24 Q124 -20 122 -9 Q121 -6 121 -4 Q130 -5 153 -5 Q168 -6 168 8 L168 82 L101 82 L101 99 L168 99 L168 137 ZM83 139 L53 139 Q46 100 38 72 Q51 63 63 52 Q79 84 83 139 Z" /><glyph glyph-name="" unicode="&#x5987;" d="M109 13 L96 -1 Q84 9 70 21 Q55 -1 20 -26 Q18 -20 8 -10 Q40 7 56 33 Q38 48 19 63 Q29 113 34 142 L12 142 L12 159 L36 159 Q40 183 41 209 L60 207 Q59 196 56 175 Q55 164 54 159 L101 159 L101 142 Q98 76 80 37 Q85 33 95 25 Q104 17 109 13 ZM120 98 L216 98 L216 171 L115 171 L115 188 L234 188 L234 -26 L216 -26 L216 -12 L113 -12 L113 4 L216 4 L216 81 L120 81 L120 98 ZM83 142 L52 142 Q49 121 42 84 Q40 74 39 70 Q53 60 65 49 Q82 85 83 142 Z" /><glyph glyph-name="" unicode="&#x5b64;" d="M101 189 Q167 191 225 200 L231 181 Q219 180 204 178 Q202 42 249 -7 Q248 -9 245 -14 Q239 -22 237 -26 Q207 15 197 56 Q187 98 187 176 Q173 176 161 174 L161 123 Q161 45 150 6 Q168 12 178 15 Q176 21 172 33 Q168 46 166 50 L181 55 Q192 22 205 -14 L189 -20 Q187 -13 182 0 Q174 -1 154 -8 Q153 -9 152 -9 Q144 -14 136 -17 L126 -2 Q132 2 134 11 Q144 45 144 121 L144 173 Q139 173 129 172 Q121 172 118 172 L118 112 Q118 58 111 30 Q103 1 82 -26 Q74 -19 68 -14 Q88 13 94 38 Q101 62 101 111 L101 189 ZM8 75 Q25 81 43 87 L43 130 L70 173 L11 173 L11 191 L90 191 L90 173 L61 124 L61 94 Q65 96 73 99 Q86 105 92 107 Q92 99 93 87 Q73 80 61 75 L61 3 Q62 -24 33 -25 Q23 -25 14 -25 Q13 -14 11 -6 Q16 -7 31 -7 Q43 -7 43 5 L43 67 Q40 66 33 63 Q19 58 13 55 L8 75 Z" /><glyph glyph-name="" unicode="&#x5b89;" d="M50 51 Q57 61 73 87 L8 87 L8 105 L84 105 Q96 126 107 149 L126 141 Q121 134 112 117 Q107 109 105 105 L248 105 L248 87 L196 87 Q183 48 154 24 Q162 21 177 14 Q195 6 231 -9 L221 -27 Q211 -23 194 -14 Q157 3 137 11 Q99 -13 27 -29 Q26 -27 24 -23 Q22 -20 17 -9 Q82 0 118 20 Q102 27 68 43 Q56 48 50 51 ZM110 201 L127 211 Q129 207 134 200 Q144 186 148 178 L138 172 L237 172 L237 126 L218 126 L218 155 L39 155 L39 126 L20 126 L20 172 L128 172 Q118 192 110 201 ZM76 57 Q84 53 103 46 Q124 37 135 32 Q165 55 176 87 L94 87 Q85 72 76 57 Z" /><glyph glyph-name="" unicode="&#x5b8c;" d="M15 78 L242 78 L242 61 L164 61 L164 11 Q163 -6 184 -5 L205 -5 Q223 -5 225 7 Q227 21 227 36 Q244 30 248 29 Q248 28 248 27 Q246 8 244 1 Q241 -24 206 -23 L180 -23 Q143 -24 144 8 L144 61 L101 61 Q103 -3 21 -28 Q16 -21 9 -11 Q84 6 82 61 L15 61 L15 78 ZM111 204 L129 211 Q130 207 134 199 Q139 188 141 182 L128 178 L239 178 L239 133 L220 133 L220 161 L36 161 L36 133 L17 133 L17 178 L122 178 Q120 182 117 191 Q113 199 111 204 ZM45 128 L215 128 L215 111 L45 111 L45 128 Z" /><glyph glyph-name="" unicode="&#x5b98;" d="M205 137 L205 74 L70 74 L70 51 L214 51 L214 -27 L196 -27 L196 -14 L70 -14 L70 -29 L51 -29 L51 137 L205 137 ZM114 206 L131 210 Q136 199 142 180 L129 176 L238 176 L238 133 L220 133 L220 160 L36 160 L36 133 L18 133 L18 176 L123 176 Q123 176 123 177 Q119 194 114 206 ZM196 35 L70 35 L70 0 L196 0 L196 35 ZM70 121 L70 91 L186 91 L186 121 L70 121 Z" /><glyph glyph-name="" unicode="&#x5b9a;" d="M8 -12 Q49 22 55 89 L74 86 Q71 64 66 46 Q90 5 124 0 L124 105 L13 105 L13 122 L243 122 L243 105 L143 105 L143 65 L228 65 L228 48 L143 48 L143 -2 Q168 -3 232 -1 Q246 -1 248 -1 Q244 -10 241 -21 Q162 -21 138 -20 Q90 -18 59 25 Q45 -5 20 -30 Q14 -21 8 -12 ZM115 206 L134 210 Q137 203 142 181 Q142 180 142 179 L236 179 L236 133 L217 133 L217 161 L40 161 L40 133 L22 133 L22 179 L122 179 Q121 182 119 189 Q117 200 115 206 Z" /><glyph glyph-name="" unicode="&#x5bb9;" d="M126 133 L144 126 Q141 123 138 120 Q188 71 247 56 Q247 56 246 54 Q241 45 238 38 Q230 41 217 47 Q209 50 206 51 L206 -28 L188 -28 L188 -17 L68 -17 L68 -28 L49 -28 L49 50 Q34 41 17 34 Q12 43 7 51 Q84 79 126 133 ZM115 206 L135 209 Q136 207 137 202 Q140 187 141 180 L238 180 L238 136 L219 136 L219 163 L37 163 L37 136 L18 136 L18 180 L121 180 Q120 192 115 206 ZM68 40 L68 -1 L188 -1 L188 40 L68 40 ZM128 108 Q98 78 61 57 L196 57 Q156 77 128 108 ZM94 152 L106 137 Q61 109 31 95 Q27 103 20 111 Q62 130 94 152 ZM159 152 Q199 134 234 114 L223 97 Q185 120 149 137 L159 152 Z" /><glyph glyph-name="" unicode="&#x5bc2;" d="M130 115 L130 132 L229 132 L229 116 Q219 62 193 28 Q212 7 247 -9 Q241 -16 233 -25 Q202 -6 181 14 Q159 -7 121 -29 Q117 -25 108 -13 Q147 7 169 29 Q146 62 138 115 L130 115 ZM22 177 L125 177 Q120 194 116 205 L133 210 Q137 198 143 182 L128 177 L235 177 L235 141 L217 141 L217 161 L40 161 L40 137 L22 137 L22 177 ZM61 154 L78 154 L78 127 L122 127 L122 111 L78 111 L78 85 L132 85 L132 69 L14 69 L14 85 L61 85 L61 154 ZM211 115 L156 115 Q163 68 182 43 Q202 71 211 115 ZM68 60 L86 60 L86 3 Q87 -25 60 -25 Q57 -25 49 -26 Q41 -26 39 -26 Q38 -22 37 -15 Q36 -9 35 -7 Q42 -8 54 -8 Q69 -9 68 3 L68 60 ZM37 56 L53 48 Q43 25 24 -3 Q22 -2 19 0 Q12 4 9 5 Q25 26 37 56 ZM97 48 L111 57 Q118 47 136 21 L121 12 Q115 21 103 39 Q99 45 97 48 Z" /><glyph glyph-name="" unicode="&#x5bc6;" d="M7 65 Q40 74 74 88 L74 93 L74 144 L91 144 L91 96 Q150 123 192 154 L203 139 Q151 103 96 79 Q100 74 112 74 L159 74 Q174 74 177 86 Q177 87 178 90 Q179 101 180 109 Q182 109 184 108 Q193 105 199 103 Q196 89 194 78 Q190 57 161 58 L108 58 Q85 58 78 71 Q73 69 64 66 Q47 59 16 48 Q14 52 11 58 Q8 63 7 65 ZM118 53 L137 53 L137 -1 L200 -1 L200 44 L218 44 L218 -28 L200 -28 L200 -18 L37 -18 L37 44 L55 44 L55 -1 L118 -1 L118 53 ZM112 204 L131 210 Q133 203 138 190 Q140 185 141 183 L239 183 L239 140 L220 140 L220 166 L36 166 L36 140 L17 140 L17 183 L120 183 Q119 187 115 195 Q113 201 112 204 ZM45 139 L62 132 Q53 111 38 84 Q22 91 20 92 Q31 106 45 139 ZM201 120 L215 131 Q232 113 247 92 L231 80 Q226 88 209 110 Q203 117 201 120 ZM104 151 L116 162 Q131 152 145 137 L132 124 Q113 143 104 151 Z" /><glyph glyph-name="" unicode="&#x5bde;" d="M244 -9 Q238 -18 233 -27 Q150 -20 129 10 Q113 -19 22 -30 Q19 -22 12 -13 Q97 -4 110 13 L16 13 L16 28 L118 28 Q119 31 119 36 Q120 41 120 44 L44 44 L44 121 L212 121 L212 44 L138 44 Q138 35 136 28 L241 28 L241 13 L147 13 Q169 -6 244 -9 ZM116 207 L134 210 Q135 206 136 200 Q138 190 139 186 L241 186 L241 147 L223 147 L223 171 L33 171 L33 147 L15 147 L15 186 L121 186 Q119 197 116 207 ZM155 167 L173 167 L173 153 L219 153 L219 138 L173 138 L173 126 L155 126 L155 138 L100 138 L100 126 L83 126 L83 138 L37 138 L37 153 L83 153 L83 167 L100 167 L100 153 L155 153 L155 167 ZM62 76 L62 58 L194 58 L194 76 L62 76 ZM62 106 L62 89 L194 89 L194 106 L62 106 Z" /><glyph glyph-name="" unicode="&#x5bf9;" d="M31 145 Q37 136 52 114 Q65 95 71 86 Q86 122 90 163 L14 163 L14 181 L110 181 L110 163 Q100 103 84 67 Q99 45 122 10 L104 0 Q100 6 92 19 Q80 37 74 47 Q55 13 19 -21 Q15 -14 5 -4 Q43 28 62 66 Q59 71 53 80 Q27 120 16 135 L31 145 ZM119 155 L200 155 L200 207 L219 207 L219 155 L249 155 L249 136 L219 136 L219 13 Q221 -24 184 -24 Q163 -24 149 -24 Q148 -14 145 -3 Q147 -3 156 -3 Q172 -4 180 -4 Q202 -6 200 16 L200 136 L119 136 L119 155 ZM124 106 L140 115 Q149 102 169 68 Q172 63 174 60 L156 49 Q153 54 146 67 Q132 93 124 106 Z" /><glyph glyph-name="" unicode="&#x5c0f;" d="M121 205 L141 205 L141 7 Q142 -26 108 -25 Q103 -25 90 -26 Q77 -26 72 -26 Q72 -25 72 -23 Q71 -15 68 -3 Q80 -4 102 -4 Q122 -5 121 12 L121 205 ZM61 153 L83 146 Q58 79 28 21 Q17 27 8 32 Q38 85 61 153 ZM170 143 L189 152 Q213 107 249 34 L227 24 Q196 93 170 143 Z" /><glyph glyph-name="" unicode="&#x5c31;" d="M156 208 L174 208 Q174 198 173 175 Q173 154 173 146 Q173 143 173 139 L241 139 L241 121 L198 121 L198 6 Q198 -5 209 -5 L214 -5 Q226 -6 228 8 Q230 28 231 45 Q238 40 249 38 Q247 17 245 4 Q241 -22 214 -22 L205 -22 Q180 -23 181 3 L181 121 L172 121 Q169 23 115 -30 Q110 -23 101 -16 Q153 32 155 121 L128 121 L128 139 L156 139 Q156 143 156 147 Q156 172 156 208 ZM25 137 L121 137 L121 70 L82 70 L82 3 Q83 -24 53 -24 Q47 -25 36 -25 Q36 -24 36 -23 Q35 -16 32 -6 Q35 -6 42 -7 Q50 -7 52 -7 Q66 -8 65 3 L65 70 L25 70 L25 137 ZM57 202 L72 210 Q81 197 88 184 L73 175 L135 175 L135 159 L11 159 L11 175 L72 175 Q64 190 57 202 ZM42 122 L42 86 L104 86 L104 122 L42 122 ZM36 58 L51 52 Q42 25 24 -1 Q21 0 14 4 Q11 5 9 6 Q24 28 36 58 ZM185 183 L196 196 Q218 181 233 167 L220 154 Q213 161 185 183 ZM90 53 L103 61 Q115 46 126 28 L111 18 Q101 36 90 53 Z" /><glyph glyph-name="" unicode="&#x5c3d;" d="M222 115 L163 115 Q186 61 248 40 Q246 37 242 31 Q238 24 236 21 Q166 52 144 115 L61 115 Q59 51 21 1 Q19 3 14 8 Q8 12 6 14 Q44 60 42 133 L42 195 L222 195 L222 115 ZM61 179 L61 132 L203 132 L203 179 L61 179 ZM61 13 L70 29 Q98 21 150 3 Q173 -4 185 -8 L176 -26 Q115 -3 61 13 ZM84 67 L93 83 Q128 71 167 54 L157 36 Q127 50 84 67 Z" /><glyph glyph-name="" unicode="&#x5c42;" d="M235 127 L55 127 L55 116 Q55 63 48 34 Q41 3 20 -29 Q10 -17 6 -13 Q38 31 36 115 L36 196 L235 196 L235 127 ZM170 24 L184 35 Q216 7 240 -17 L225 -30 Q219 -22 210 -14 Q124 -14 90 -18 Q83 -18 73 -21 L65 -3 Q79 1 87 8 Q106 27 118 43 L57 43 L57 60 L248 60 L248 43 L142 43 Q119 14 103 0 Q150 0 195 0 Q182 14 170 24 ZM55 179 L55 144 L217 144 L217 179 L55 179 ZM74 104 L226 104 L226 87 L74 87 L74 104 Z" /><glyph glyph-name="" unicode="&#x5ce1;" d="M164 207 L182 207 L182 172 L237 172 L237 155 L182 155 Q182 105 180 81 L244 81 L244 64 L185 64 Q201 13 249 -6 Q245 -10 239 -20 Q237 -23 236 -25 Q187 5 173 53 Q159 2 103 -29 Q98 -21 91 -12 Q148 17 158 64 L106 64 L106 81 L162 81 Q163 95 164 110 Q164 122 164 155 L112 155 L112 172 L164 172 L164 207 ZM17 11 L17 161 L34 161 L34 27 L49 28 L49 207 L66 207 L66 29 L81 30 L81 161 L98 161 L98 3 L81 3 L81 14 L17 11 ZM237 132 Q233 127 225 114 Q216 101 211 94 L196 104 Q204 115 216 134 Q219 139 221 141 L237 132 ZM111 132 L125 141 Q138 122 150 106 L134 95 Q124 114 111 132 Z" /><glyph glyph-name="" unicode="&#x5e38;" d="M53 132 L204 132 L204 77 L138 77 L138 57 L227 57 L227 15 Q228 -10 198 -11 Q174 -11 169 -11 Q168 -2 166 6 Q180 5 193 5 Q209 4 208 18 L208 41 L138 41 L138 -29 L119 -29 L119 41 L51 41 L51 -11 L32 -11 L32 57 L119 57 L119 77 L53 77 L53 132 ZM168 177 Q189 191 206 205 L220 191 Q200 176 183 165 L239 165 L239 123 L220 123 L220 149 L37 149 L37 123 L18 123 L18 165 L75 165 Q59 180 41 192 L52 205 Q67 195 89 179 L76 165 L119 165 L119 208 L138 208 L138 165 L178 165 L168 177 ZM71 116 L71 92 L186 92 L186 116 L71 116 Z" /><glyph glyph-name="" unicode="&#x5e73;" d="M22 197 L236 197 L236 178 L138 178 L138 77 L246 77 L246 58 L138 58 L138 -29 L118 -29 L118 58 L10 58 L10 77 L118 77 L118 178 L22 178 L22 197 ZM157 102 Q179 126 206 163 L222 152 Q194 114 172 89 L157 102 ZM34 152 L49 162 Q69 138 96 102 L79 89 Q64 113 34 152 Z" /><glyph glyph-name="" unicode="&#x5e74;" d="M11 123 Q48 158 68 210 L88 205 Q86 201 83 193 Q79 185 77 181 L238 181 L238 163 L152 163 L152 121 L234 121 L234 103 L152 103 L152 52 L249 52 L249 34 L152 34 L152 -29 L133 -29 L133 34 L9 34 L9 52 L48 52 L48 121 L133 121 L133 163 L66 163 Q49 134 26 110 Q25 111 18 117 Q12 122 11 123 ZM67 103 L67 52 L133 52 L133 103 L67 103 Z" /><glyph glyph-name="" unicode="&#x5eb8;" d="M51 129 L133 129 L133 143 L63 143 L63 156 L133 156 L133 165 L150 165 L150 156 L221 156 L221 129 L246 129 L246 116 L221 116 L221 89 L150 89 L150 75 L222 75 L222 -4 Q223 -25 198 -26 Q183 -26 173 -26 Q173 -25 171 -19 Q170 -13 169 -11 Q181 -11 195 -11 Q206 -12 205 -2 L205 5 L150 5 L150 -24 L133 -24 L133 5 L78 5 L78 -27 L61 -27 L61 75 L133 75 L133 89 L61 89 L61 102 L133 102 L133 116 L51 116 L51 129 ZM141 209 Q144 197 147 185 L243 185 L243 170 L47 170 L47 110 Q47 54 42 26 Q37 -1 21 -29 Q15 -23 5 -17 Q20 6 24 31 Q29 56 29 110 L29 185 L129 185 Q126 196 124 206 L141 209 ZM150 33 L150 17 L205 17 L205 33 L150 33 ZM78 33 L78 17 L133 17 L133 33 L78 33 ZM205 62 L150 62 L150 46 L205 46 L205 62 ZM78 62 L78 46 L133 46 L133 62 L78 62 ZM150 116 L150 102 L205 102 L205 116 L150 116 ZM205 143 L150 143 L150 129 L205 129 L205 143 Z" /><glyph glyph-name="" unicode="&#x5f00;" d="M20 190 L237 190 L237 171 L187 171 L187 101 L247 101 L247 82 L187 82 L187 -27 L167 -27 L167 82 L92 82 Q96 3 25 -30 Q13 -15 11 -13 Q48 4 59 23 Q72 41 72 82 L9 82 L9 101 L72 101 L72 171 L20 171 L20 190 ZM92 171 L92 101 L167 101 L167 171 L92 171 Z" /><glyph glyph-name="" unicode="&#x5f02;" d="M211 130 L55 130 L55 119 Q54 100 73 101 L201 101 Q219 100 222 114 Q223 117 224 122 Q225 129 227 140 Q230 139 237 137 Q244 134 246 133 Q244 122 239 106 Q234 83 204 84 L69 84 Q35 83 36 117 L36 196 L211 196 L211 130 ZM9 48 L69 48 Q70 60 70 77 L89 77 Q89 60 88 48 L169 48 L169 77 L188 77 L188 48 L246 48 L246 31 L188 31 L188 -29 L169 -29 L169 31 L87 31 Q85 -8 30 -30 Q24 -23 16 -13 Q66 3 67 31 L9 31 L9 48 ZM55 179 L55 146 L192 146 L192 179 L55 179 Z" /><glyph glyph-name="" unicode="&#x5f0f;" d="M141 209 L162 209 Q161 187 162 162 L246 162 L246 144 L163 144 Q164 112 167 86 Q173 26 197 1 Q207 -7 214 -7 Q220 -8 223 3 Q228 23 229 39 Q239 34 248 32 Q246 8 240 -5 Q235 -28 216 -28 Q200 -28 184 -13 Q155 16 148 83 Q145 112 143 144 L8 144 L8 162 L142 162 Q142 170 142 186 Q141 202 141 209 ZM9 8 Q18 9 47 13 Q59 14 65 15 L65 83 L18 83 L18 101 L132 101 L132 83 L85 83 L85 18 Q96 19 119 23 Q136 25 143 26 Q142 16 142 7 Q133 6 86 0 Q31 -7 14 -10 L9 8 ZM180 195 L192 207 Q203 199 219 186 Q224 181 227 179 L213 164 Q198 180 180 195 Z" /><glyph glyph-name="" unicode="&#x5f3a;" d="M99 104 L158 104 L158 125 L175 125 L175 104 L235 104 L235 34 L175 34 L175 1 Q196 1 213 3 Q210 7 205 15 Q201 20 200 22 L215 31 Q226 17 250 -18 L233 -29 Q232 -26 228 -20 Q225 -14 223 -11 Q143 -17 87 -21 L84 -1 Q130 0 158 0 L158 34 L99 34 L99 104 ZM108 195 L226 195 L226 131 L108 131 L108 195 ZM14 194 L86 194 L86 119 L37 119 L32 78 L83 78 Q82 60 81 28 Q81 34 80 16 Q78 -24 42 -24 Q27 -24 20 -24 Q20 -23 19 -20 Q18 -9 16 -4 Q25 -5 39 -5 Q61 -7 62 16 Q65 38 65 62 L13 62 L20 135 L69 135 L69 178 L14 178 L14 194 ZM125 179 L125 147 L208 147 L208 179 L125 179 ZM218 88 L175 88 L175 50 L218 50 L218 88 ZM116 88 L116 50 L158 50 L158 88 L116 88 Z" /><glyph glyph-name="" unicode="&#x5f69;" d="M7 7 Q46 35 66 78 L16 78 L16 95 L70 95 L70 113 L87 113 L87 95 L137 95 L137 78 L87 78 L87 47 L95 58 Q129 34 142 24 L130 9 Q124 14 114 22 Q96 37 87 44 L87 -28 L70 -28 L70 55 Q48 13 19 -7 Q17 -4 11 2 Q8 5 7 7 ZM119 -12 Q195 15 233 68 L248 57 Q205 2 131 -28 Q129 -26 125 -20 Q121 -15 119 -12 ZM16 174 Q15 182 12 190 Q94 193 140 198 L144 182 Q120 180 72 177 Q35 175 16 174 ZM239 121 Q208 85 154 55 Q152 59 148 65 Q145 69 144 71 Q199 98 225 132 L239 121 ZM234 187 Q202 149 150 121 Q150 122 148 123 Q142 133 138 136 Q190 160 218 197 L234 187 ZM102 119 Q112 134 130 170 L146 162 Q138 147 118 112 L102 119 ZM64 164 L79 169 Q82 161 87 145 Q92 132 94 126 L78 121 Q70 148 64 164 ZM16 152 L30 160 Q42 143 52 122 L37 113 Q28 131 16 152 Z" /><glyph glyph-name="" unicode="&#x5f71;" d="M70 121 L80 125 L22 125 L22 197 L142 197 L142 125 L87 125 Q88 122 90 117 Q92 111 93 108 L158 108 L158 94 L9 94 L9 108 L76 108 L70 121 ZM25 80 L139 80 L139 34 L92 34 L92 -2 Q93 -27 68 -27 Q54 -27 45 -27 Q45 -26 44 -24 Q43 -14 41 -10 Q55 -11 62 -11 Q77 -12 76 0 L76 34 L25 34 L25 80 ZM135 -16 Q195 14 233 69 L248 59 Q208 2 147 -30 Q145 -28 141 -23 Q137 -18 135 -16 ZM152 71 Q197 101 227 143 L242 131 Q205 86 165 57 Q163 59 160 62 Q155 69 152 71 ZM150 142 Q186 164 216 204 L231 193 Q199 154 163 128 Q160 131 156 136 Q152 140 150 142 ZM42 66 L42 48 L122 48 L122 66 L42 66 ZM38 155 L38 138 L125 138 L125 155 L38 155 ZM38 184 L38 167 L125 167 L125 184 L38 184 ZM9 -7 Q29 9 44 28 L57 19 Q46 3 21 -18 L9 -7 ZM104 18 L115 29 Q119 25 127 19 Q140 8 146 2 L134 -9 Q129 -4 119 4 Q110 13 104 18 Z" /><glyph glyph-name="" unicode="&#x5f77;" d="M152 204 L170 209 Q177 192 184 173 L165 167 L245 167 L245 150 L140 150 L139 111 L231 111 Q230 61 227 19 Q228 -26 185 -23 Q172 -24 152 -24 Q151 -9 148 -3 Q152 -3 166 -3 Q180 -4 185 -4 Q207 -6 208 18 Q209 37 210 69 Q211 86 211 94 L138 94 Q135 14 90 -30 Q84 -23 74 -15 Q119 28 119 111 L121 150 L89 150 L89 167 L164 167 Q162 179 152 204 ZM7 68 Q42 95 72 144 L89 134 Q76 115 61 95 L61 -28 L42 -28 L42 73 Q29 59 15 48 Q14 53 9 63 Q7 67 7 68 ZM12 144 Q44 167 68 207 L84 196 Q59 156 21 125 Q15 140 12 144 Z" /><glyph glyph-name="" unicode="&#x5f7c;" d="M161 207 L179 207 L179 173 L239 173 L233 122 Q230 123 224 123 Q218 124 214 124 L219 156 L179 156 L179 103 L226 103 L226 87 Q211 47 187 20 Q209 3 248 -8 Q242 -17 237 -26 Q197 -11 173 7 Q148 -11 109 -30 Q105 -22 97 -14 Q144 6 160 20 Q136 45 124 87 L115 87 Q114 16 82 -28 Q76 -20 69 -13 Q99 23 97 107 L97 173 L161 173 L161 207 ZM8 63 Q45 94 70 140 L87 129 Q82 120 69 103 Q63 94 60 90 L60 -28 L42 -28 L42 69 Q29 54 16 43 Q12 53 8 63 ZM115 156 L115 106 L115 103 L161 103 L161 156 L115 156 ZM206 87 L141 87 Q153 54 173 33 Q196 56 206 87 ZM11 141 Q47 167 68 205 L85 194 Q53 149 20 122 Q20 122 19 124 Q15 135 11 141 Z" /><glyph glyph-name="" unicode="&#x5f84;" d="M97 175 L97 192 L226 192 L226 175 Q209 154 183 133 Q203 124 240 102 Q246 99 249 97 L238 80 Q218 93 178 116 Q171 120 168 122 Q134 99 86 81 Q85 83 82 88 Q78 96 76 99 Q157 126 201 175 L97 175 ZM79 0 L154 0 L154 56 L93 56 L93 74 L234 74 L234 56 L173 56 L173 0 L248 0 L248 -15 L79 -15 L79 0 ZM6 63 Q45 98 72 149 L88 139 Q79 122 61 97 L61 -28 L42 -28 L42 73 Q30 58 14 43 Q10 53 6 63 ZM12 142 Q47 170 71 211 L87 200 Q62 159 21 124 Q16 132 12 142 Z" /><glyph glyph-name="" unicode="&#x5f85;" d="M93 174 L155 174 L155 208 L174 208 L174 174 L236 174 L236 157 L174 157 L174 123 L246 123 L246 106 L82 106 L82 123 L155 123 L155 157 L93 157 L93 174 ZM191 98 L210 98 L210 75 L248 75 L248 58 L210 58 L210 3 Q211 -26 177 -25 Q165 -26 142 -26 Q141 -21 140 -13 Q138 -7 138 -5 Q156 -6 173 -6 Q192 -7 191 9 L191 58 L82 58 L82 75 L191 75 L191 98 ZM7 65 Q42 96 66 144 L83 135 Q72 117 61 101 L61 -29 L43 -29 L43 76 Q30 61 16 46 Q12 55 7 65 ZM8 140 Q42 168 66 209 L83 199 Q53 154 18 124 Q17 127 13 132 Q10 138 8 140 ZM100 39 L114 50 Q115 49 117 47 Q130 33 145 15 L129 3 Q115 23 100 39 Z" /><glyph glyph-name="" unicode="&#x5f97;" d="M102 197 L226 197 L226 108 L102 108 L102 197 ZM89 89 L243 89 L243 73 L213 73 L213 53 L248 53 L248 37 L213 37 L213 4 Q214 -26 182 -25 Q156 -25 148 -25 Q147 -17 144 -5 Q146 -5 148 -5 Q167 -7 178 -7 Q196 -8 195 10 L195 37 L79 37 L79 53 L195 53 L195 73 L89 73 L89 89 ZM7 65 Q43 101 67 145 L83 136 Q71 117 61 101 L61 -28 L43 -28 L43 77 Q30 61 16 46 Q12 55 7 65 ZM120 145 L120 123 L208 123 L208 145 L120 145 ZM120 182 L120 160 L208 160 L208 182 L120 182 ZM8 141 Q40 165 66 208 L83 199 Q58 160 18 124 Q12 136 8 141 ZM102 26 L116 37 Q130 22 142 7 L127 -3 Q115 11 102 26 Z" /><glyph glyph-name="" unicode="&#x5fa8;" d="M95 187 L138 187 Q139 189 140 192 Q143 199 146 210 L165 205 Q160 196 157 187 L228 187 L228 95 L95 95 L95 187 ZM87 74 L237 74 L237 59 L170 59 L170 35 L230 35 L230 19 L170 19 L170 -4 L247 -4 L247 -20 L76 -20 L76 -4 L153 -4 L153 19 L93 19 L93 35 L153 35 L153 59 L87 59 L87 74 ZM7 65 Q43 100 66 145 L83 136 Q79 131 73 120 Q65 108 61 102 L61 -28 L43 -28 L43 77 Q36 68 18 49 Q17 47 16 46 Q12 55 7 65 ZM112 134 L112 110 L211 110 L211 134 L112 134 ZM112 172 L112 148 L211 148 L211 172 L112 172 ZM8 141 Q41 165 66 209 L83 199 Q54 154 18 124 Q14 132 8 141 Z" /><glyph glyph-name="" unicode="&#x5fae;" d="M190 207 L207 204 Q203 183 195 162 L249 162 L249 145 L235 145 Q229 75 212 38 Q224 14 251 -10 Q245 -20 241 -28 Q220 -7 203 20 Q193 1 164 -30 Q159 -24 151 -16 Q184 16 195 38 Q181 70 176 110 Q173 101 168 93 Q163 100 156 105 Q178 150 190 207 ZM129 49 L94 49 L94 43 Q96 0 70 -23 Q67 -16 59 -8 Q80 5 78 48 L78 65 L145 65 L145 23 Q159 34 168 44 Q169 40 171 32 Q172 27 172 25 Q157 13 144 0 Q141 -1 134 -8 L122 6 Q130 12 129 27 L129 49 ZM108 204 L123 204 L123 142 L143 142 L143 186 L159 186 L159 126 L73 126 L73 186 L88 186 L88 142 L108 142 L108 204 ZM7 64 Q32 95 53 141 L68 133 Q60 117 51 100 L51 -28 L35 -28 L35 74 Q32 70 25 60 Q18 51 14 46 Q12 53 9 60 Q7 63 7 64 ZM204 58 Q215 92 219 145 L190 145 Q190 145 189 144 Q189 143 188 142 Q191 91 204 58 ZM11 141 Q38 172 54 206 L70 197 Q49 159 18 124 Q15 133 11 141 ZM76 104 L155 104 L155 88 L76 88 L76 104 Z" /><glyph glyph-name="" unicode="&#x5fc3;" d="M71 162 L90 162 L90 20 Q89 -2 112 -1 L159 -1 Q184 -3 186 16 Q186 20 187 27 Q189 42 190 52 Q202 48 210 45 Q207 23 204 7 Q199 -21 161 -20 L108 -20 Q70 -21 71 16 L71 162 ZM207 143 Q209 139 213 132 Q237 83 249 55 L229 45 Q211 93 188 135 L207 143 ZM35 135 L54 130 Q42 73 27 30 L8 38 Q26 91 35 135 ZM123 210 Q137 189 159 149 Q162 144 163 141 L143 131 Q127 168 106 201 L123 210 Z" /><glyph glyph-name="" unicode="&#x5ff5;" d="M146 207 Q143 202 139 199 Q180 154 248 133 Q245 128 240 119 Q239 115 238 114 Q166 143 127 186 Q88 143 18 111 Q17 114 13 120 Q9 126 7 128 Q87 161 126 211 L146 207 ZM70 54 L89 54 L89 11 Q88 -5 107 -4 L148 -4 Q171 -6 173 11 Q173 14 174 19 Q176 30 177 36 Q186 33 195 30 Q194 25 192 16 Q190 6 189 1 Q184 -22 150 -21 L103 -21 Q69 -22 70 8 L70 54 ZM52 96 L52 113 L195 113 L195 97 L166 49 Q156 55 149 57 L174 96 L52 96 ZM31 53 L49 47 Q38 10 25 -16 Q18 -12 8 -7 Q21 18 31 53 ZM193 48 L207 59 Q219 44 242 16 Q247 10 249 7 L232 -3 Q228 1 220 12 Q204 35 193 48 ZM101 63 L114 74 Q136 54 155 35 L141 21 Q140 22 139 24 Q113 52 101 63 ZM105 150 L118 160 Q133 144 146 129 L132 117 Q119 134 105 150 Z" /><glyph glyph-name="" unicode="&#x606f;" d="M40 184 L99 184 Q100 186 101 191 Q104 197 107 209 L127 206 Q123 196 118 184 L214 184 L214 60 L40 60 L40 184 ZM65 47 L83 47 L83 10 Q81 -8 103 -6 L152 -6 Q174 -7 176 5 Q177 9 180 23 Q180 29 181 32 Q190 28 199 25 Q198 19 196 10 Q194 3 194 0 Q188 -24 155 -23 L100 -23 Q63 -25 65 9 L65 47 ZM58 97 L58 75 L196 75 L196 97 L58 97 ZM58 169 L58 147 L196 147 L196 169 L58 169 ZM58 133 L58 112 L196 112 L196 133 L58 133 ZM29 46 L47 39 Q45 33 39 21 Q29 -4 24 -13 L6 -5 Q19 14 29 46 ZM202 38 L216 49 Q235 29 251 8 L236 -3 Q219 20 202 38 ZM107 46 L120 57 Q136 43 153 24 L138 12 Q124 28 107 46 Z" /><glyph glyph-name="" unicode="&#x60a6;" d="M94 161 L167 161 Q174 172 186 192 Q192 202 195 207 L213 198 Q203 183 187 161 L229 161 L229 67 L190 67 L190 7 Q190 -5 201 -5 L214 -5 Q226 -5 229 4 Q230 12 232 36 Q240 32 250 29 Q250 27 249 22 Q248 5 246 -1 Q241 -22 217 -22 L200 -22 Q172 -22 172 6 L172 67 L146 67 Q147 4 83 -27 Q78 -22 70 -12 Q129 14 129 67 L94 67 L94 161 ZM112 144 L112 84 L211 84 L211 144 L112 144 ZM41 207 L59 207 L59 155 L69 162 Q79 150 92 127 L78 118 Q75 122 68 135 Q62 146 59 151 L59 -28 L41 -28 L41 207 ZM19 151 L36 149 Q30 111 24 84 Q17 86 7 88 Q16 119 19 151 ZM108 197 L123 208 Q126 204 131 197 Q144 180 148 173 L132 162 Q122 178 108 197 Z" /><glyph glyph-name="" unicode="&#x60f3;" d="M229 63 L115 63 L115 197 L229 197 L229 63 ZM7 86 Q35 116 50 154 L13 154 L13 169 L52 169 L52 207 L70 207 L70 169 L105 169 L105 154 L70 154 L70 128 L79 137 Q95 124 108 111 L95 99 Q83 112 70 125 L70 58 L52 58 L52 124 Q41 99 16 68 Q12 77 7 86 ZM71 50 L89 50 L89 8 Q88 -7 105 -6 L152 -6 Q170 -7 172 4 Q175 16 177 32 Q186 28 196 25 Q193 7 189 -1 Q184 -24 155 -23 L101 -23 Q70 -24 71 6 L71 50 ZM132 103 L132 78 L212 78 L212 103 L132 103 ZM132 142 L132 118 L212 118 L212 142 L132 142 ZM132 181 L132 157 L212 157 L212 181 L132 181 ZM32 47 L50 40 Q36 3 26 -13 Q19 -9 9 -4 Q22 16 32 47 ZM201 38 L216 48 Q234 26 248 5 L232 -5 Q218 15 201 38 ZM109 46 L121 57 Q140 41 153 27 L140 14 Q139 15 138 16 Q122 34 109 46 Z" /><glyph glyph-name="" unicode="&#x611f;" d="M190 202 L203 211 Q213 199 222 187 L210 178 L244 178 L244 163 L173 163 Q177 120 187 100 Q201 118 213 148 L229 141 Q212 104 195 84 Q199 77 205 71 Q217 58 224 72 Q228 86 232 103 Q241 99 250 96 Q245 78 238 60 Q222 31 194 55 Q188 63 183 69 Q181 67 176 63 Q170 57 154 44 Q151 49 142 58 Q161 72 174 84 Q161 110 157 163 L51 163 L51 138 Q54 76 22 36 Q21 38 19 41 Q15 46 10 51 Q35 80 34 138 L34 178 L155 178 Q154 183 154 192 Q153 202 153 207 L170 207 Q170 202 171 192 Q171 183 172 178 L207 178 Q195 196 190 202 ZM68 114 L142 114 L142 60 L68 60 L68 114 ZM70 41 L89 41 L89 10 Q87 -7 108 -6 L149 -6 Q167 -7 169 6 Q172 18 174 32 Q182 29 193 25 Q191 19 189 8 Q187 1 186 -1 Q180 -24 153 -23 L103 -23 Q69 -24 70 8 L70 41 ZM60 145 L148 145 L148 131 L60 131 L60 145 ZM37 42 L54 35 Q40 0 27 -17 Q20 -13 11 -8 Q28 17 37 42 ZM84 100 L84 75 L125 75 L125 100 L84 100 ZM202 27 L216 37 Q226 25 247 -2 L231 -14 Q218 6 202 27 ZM109 44 L122 54 Q127 48 137 38 Q146 27 151 21 L135 9 Q122 29 109 44 Z" /><glyph glyph-name="" unicode="&#x6216;" d="M12 165 L142 165 Q141 182 141 207 L160 207 Q160 189 161 165 L246 165 L246 147 L161 147 Q161 144 162 138 Q162 132 162 129 Q165 80 174 48 Q196 79 212 122 L230 115 Q210 66 182 28 Q190 10 201 0 Q210 -7 217 -7 Q225 -7 226 3 Q231 22 232 40 Q243 36 250 33 Q247 6 242 -7 Q237 -27 219 -27 Q203 -28 188 -13 Q177 -3 169 12 Q149 -10 122 -29 Q120 -27 116 -23 Q112 -18 109 -15 Q143 9 161 30 Q147 67 144 127 Q143 136 143 147 L12 147 L12 165 ZM29 123 L116 123 L116 44 L29 44 L29 123 ZM47 106 L47 61 L99 61 L99 106 L47 106 ZM8 6 Q29 8 100 19 Q120 23 129 24 Q129 14 130 6 Q63 -2 13 -12 L8 6 ZM178 195 L188 208 Q208 196 227 182 L216 168 Q199 182 178 195 Z" /><glyph glyph-name="" unicode="&#x6240;" d="M29 190 Q71 191 113 200 L119 182 Q93 177 47 174 L47 136 L110 136 L110 55 L45 55 Q43 7 20 -28 Q14 -21 7 -14 Q31 17 29 91 L29 190 ZM133 188 Q191 191 238 199 L244 181 Q183 174 151 172 L151 118 L249 118 L249 101 L211 101 L211 -28 L193 -28 L193 101 L151 101 L151 89 Q153 15 109 -30 Q102 -22 94 -14 Q133 22 133 88 L133 188 ZM93 120 L47 120 L47 91 Q47 87 46 81 Q46 75 46 72 L93 72 L93 120 Z" /><glyph glyph-name="" unicode="&#x6267;" d="M97 160 L129 160 Q130 174 130 208 L149 208 Q149 200 149 184 Q148 168 148 160 L212 160 Q210 86 211 53 Q212 18 217 3 Q219 0 222 0 Q225 0 226 4 Q230 16 233 43 Q243 39 251 36 Q251 33 250 28 Q246 0 243 -3 Q237 -24 221 -23 Q206 -22 199 -3 Q195 9 194 38 Q193 52 193 75 Q193 93 193 142 L147 142 Q147 141 147 140 Q145 129 145 116 Q144 97 141 80 Q148 75 162 65 Q173 58 178 54 L166 37 Q151 47 136 59 Q127 12 85 -28 Q79 -21 71 -14 Q111 22 121 70 Q113 76 97 87 Q92 90 90 91 L102 106 Q106 104 113 99 Q121 94 124 91 Q126 104 127 119 Q127 123 128 131 Q128 139 128 142 L97 142 L97 160 ZM8 79 Q17 81 41 87 L41 143 L9 143 L9 160 L41 160 L41 207 L60 207 L60 160 L89 160 L89 143 L60 143 L60 92 Q63 93 69 95 Q75 96 86 100 Q86 88 88 81 Q86 80 81 79 Q77 78 60 73 L60 4 Q61 -25 34 -25 Q30 -26 13 -26 Q12 -17 9 -5 Q25 -7 31 -7 Q41 -8 41 7 L41 67 Q24 63 10 58 L8 79 Z" /><glyph glyph-name="" unicode="&#x6280;" d="M97 98 L97 114 L159 114 L159 151 L96 151 L96 168 L159 168 L159 207 L178 207 L178 168 L244 168 L244 151 L178 151 L178 114 L230 114 L230 99 Q210 49 183 21 Q203 4 249 -9 Q248 -10 245 -13 Q237 -23 235 -27 Q197 -12 168 8 Q138 -14 92 -31 Q87 -24 79 -14 Q130 3 155 22 Q130 47 113 98 L97 98 ZM7 80 Q21 84 42 91 L42 142 L10 142 L10 159 L42 159 L42 206 L61 206 L61 159 L89 159 L89 142 L61 142 L61 96 Q75 101 88 105 Q88 93 89 86 Q87 85 81 84 Q68 80 61 77 L61 3 Q63 -25 34 -25 Q26 -26 14 -26 Q14 -24 12 -16 Q10 -8 9 -5 Q15 -6 31 -6 Q43 -7 42 5 L42 71 Q23 65 9 60 L7 80 ZM209 98 L132 98 Q147 55 169 33 Q195 58 209 98 Z" /><glyph glyph-name="" unicode="&#x62a4;" d="M148 199 L165 209 Q176 195 185 180 L170 171 L236 171 L236 62 L217 62 L217 74 L123 74 Q122 14 89 -29 Q88 -28 86 -27 Q80 -22 73 -15 Q94 12 100 36 Q106 60 106 109 L106 171 L167 171 Q165 174 162 179 Q158 185 148 199 ZM7 79 Q11 80 22 83 Q36 87 43 89 L43 145 L12 145 L12 162 L43 162 L43 207 L62 207 L62 162 L93 162 L93 145 L62 145 L62 94 Q77 99 92 103 Q93 91 93 84 Q78 81 62 75 L62 2 Q64 -25 35 -24 Q28 -25 14 -25 Q14 -21 12 -12 Q11 -7 11 -5 Q17 -5 33 -5 Q44 -6 43 4 L43 70 Q25 64 9 59 L7 79 ZM124 153 L124 108 Q124 99 124 92 L217 92 L217 153 L124 153 Z" /><glyph glyph-name="" unicode="&#x6325;" d="M89 141 L129 141 Q131 146 136 156 Q141 166 143 171 L162 166 Q156 154 149 141 L243 141 L243 124 L141 124 Q129 101 118 81 L158 81 L158 112 L177 112 L177 81 L235 81 L235 64 L177 64 L177 34 L247 34 L247 17 L177 17 L177 -28 L158 -28 L158 17 L79 17 L79 34 L158 34 L158 64 L96 64 L96 81 Q104 92 121 124 L89 124 L89 141 ZM9 80 Q24 83 41 88 L41 145 L10 145 L10 162 L41 162 L41 206 L59 206 L59 162 L84 162 L84 145 L59 145 L59 92 Q65 94 75 97 Q82 99 86 100 Q86 88 85 81 Q82 80 74 78 Q64 76 59 74 L59 1 Q60 -25 34 -25 Q28 -25 13 -26 Q13 -23 11 -16 Q10 -9 9 -6 Q15 -6 29 -6 Q41 -6 41 2 L41 69 Q36 68 27 65 Q15 61 10 60 L9 80 ZM92 194 L240 194 L240 152 L222 152 L222 177 L110 177 L110 152 L92 152 L92 194 Z" /><glyph glyph-name="" unicode="&#x63a2;" d="M70 2 Q121 30 143 72 L87 72 L87 89 L156 89 L156 119 L173 119 L173 89 L246 89 L246 72 L185 72 Q208 29 252 6 Q244 -1 238 -9 Q196 19 173 67 L173 -28 L156 -28 L156 67 Q131 17 85 -12 Q79 -5 70 2 ZM8 78 Q14 79 27 83 Q36 86 40 87 L40 143 L11 143 L11 160 L40 160 L40 206 L58 206 L58 160 L83 160 L83 143 L58 143 L58 93 Q64 94 73 97 Q78 99 81 100 Q81 89 82 82 Q80 81 76 80 Q73 79 58 74 L58 4 Q59 -25 31 -25 Q19 -25 13 -25 Q12 -15 9 -6 Q13 -6 21 -7 Q27 -7 29 -7 Q41 -8 40 6 L40 68 Q33 66 19 61 Q13 59 10 58 L8 78 ZM93 191 L240 191 L240 149 L223 149 L223 175 L110 175 L110 149 L93 149 L93 191 ZM175 149 L187 162 Q214 140 239 116 L226 102 Q201 128 175 149 ZM140 161 L155 151 Q140 130 108 99 Q102 105 94 111 Q121 134 140 161 Z" /><glyph glyph-name="" unicode="&#x63a7;" d="M8 78 Q12 79 23 82 Q36 85 42 87 L42 144 L9 144 L9 161 L42 161 L42 208 L60 208 L60 161 L86 161 L86 144 L60 144 L60 92 Q66 93 79 97 Q83 98 85 99 Q86 88 87 80 Q82 79 69 76 Q63 74 60 73 L60 4 Q61 -26 31 -26 Q20 -26 13 -26 Q12 -17 9 -7 Q12 -7 20 -8 Q27 -8 30 -8 Q42 -8 42 6 L42 68 Q30 65 10 58 L8 78 ZM98 75 L236 75 L236 58 L176 58 L176 -1 L247 -1 L247 -18 L82 -18 L82 -1 L157 -1 L157 58 L98 58 L98 75 ZM95 171 L165 171 Q157 187 146 201 L162 210 Q176 191 183 178 L170 171 L240 171 L240 128 L222 128 L222 154 L112 154 L112 128 L95 128 L95 171 ZM179 125 L191 137 Q224 114 246 93 L233 79 Q208 103 179 125 ZM155 125 Q132 103 102 79 L89 93 Q110 107 143 137 L155 125 Z" /><glyph glyph-name="" unicode="&#x6562;" d="M7 16 Q11 17 18 17 Q25 18 28 18 L28 138 L11 138 L11 154 L89 154 L93 182 L28 182 L28 197 L113 197 L105 154 L136 154 L136 138 L116 138 L116 28 L140 31 Q139 21 139 14 Q135 14 128 13 Q120 12 116 11 L116 -28 L99 -28 L99 9 Q77 7 36 2 Q18 0 9 0 L7 16 ZM165 207 L183 205 Q177 181 171 162 L247 162 L247 145 L230 145 Q223 73 200 36 Q218 6 251 -11 Q245 -20 239 -28 Q208 -6 189 20 Q174 0 136 -31 Q130 -24 123 -15 Q159 9 179 36 Q159 73 153 122 Q152 120 150 117 Q143 104 138 97 Q138 97 137 98 Q131 106 126 110 Q154 151 165 207 ZM189 54 Q208 88 212 145 L167 145 Q171 91 189 54 ZM46 20 Q73 23 99 26 L99 52 L46 52 L46 20 ZM46 138 L46 110 L99 110 L99 138 L46 138 ZM46 95 L46 67 L99 67 L99 95 L46 95 Z" /><glyph glyph-name="" unicode="&#x65b9;" d="M12 166 L125 166 Q120 181 111 202 L130 209 Q140 187 146 173 L128 166 L245 166 L245 148 L98 148 Q98 142 97 129 Q97 117 96 110 L213 110 Q212 96 211 70 Q209 42 208 27 Q207 -24 158 -21 Q140 -22 115 -22 Q115 -11 112 0 Q136 -2 157 -2 Q186 -5 188 30 Q189 44 190 72 Q191 85 191 92 L95 92 Q91 16 22 -30 Q16 -23 7 -13 Q73 27 75 98 Q76 110 77 132 Q78 142 78 148 L12 148 L12 166 Z" /><glyph glyph-name="" unicode="&#x65e0;" d="M30 189 L227 189 L227 172 L136 172 Q135 139 130 114 L245 114 L245 96 L151 96 L151 18 Q150 -3 170 -2 L204 -2 Q224 -3 225 13 Q225 17 226 24 Q227 37 228 46 Q231 45 238 43 Q244 40 247 39 Q246 19 243 6 Q241 -22 205 -20 L166 -20 Q131 -21 132 15 L132 96 L126 96 Q109 17 22 -31 Q17 -22 8 -13 Q89 26 106 96 L12 96 L12 114 L110 114 Q116 139 116 172 L30 172 L30 189 Z" /><glyph glyph-name="" unicode="&#x661f;" d="M40 197 L222 197 L222 104 L40 104 L40 197 ZM124 99 L143 99 L143 78 L235 78 L235 61 L143 61 L143 37 L228 37 L228 21 L143 21 L143 -3 L246 -3 L246 -19 L15 -19 L15 -3 L124 -3 L124 21 L46 21 L46 37 L124 37 L124 61 L53 61 Q42 42 24 23 Q12 35 10 36 Q38 64 55 101 L72 95 Q68 86 63 78 L124 78 L124 99 ZM59 143 L59 120 L204 120 L204 143 L59 143 ZM59 181 L59 159 L204 159 L204 181 L59 181 Z" /><glyph glyph-name="" unicode="&#x662f;" d="M46 199 L211 199 L211 106 L46 106 L46 199 ZM58 61 L77 56 Q73 42 68 33 Q87 -1 123 -2 L123 70 L12 70 L12 87 L245 87 L245 70 L142 70 L142 46 L228 46 L228 29 L142 29 L142 -3 Q191 -5 250 -2 Q246 -11 243 -21 Q177 -21 133 -21 Q81 -20 60 16 Q47 -8 18 -30 Q12 -23 6 -15 Q45 9 58 61 ZM64 182 L64 161 L193 161 L193 182 L64 182 ZM64 145 L64 123 L193 123 L193 145 L64 145 Z" /><glyph glyph-name="" unicode="&#x666f;" d="M116 122 L130 126 L37 126 L37 199 L220 199 L220 126 L133 126 Q136 117 139 109 L242 109 L242 93 L14 93 L14 109 L121 109 Q120 111 119 116 Q117 120 116 122 ZM41 79 L217 79 L217 31 L141 31 L141 0 Q142 -25 114 -26 Q106 -26 88 -26 Q88 -25 87 -22 Q87 -18 84 -7 Q89 -7 98 -8 Q106 -8 110 -8 Q123 -8 123 1 L123 31 L41 31 L41 79 ZM59 65 L59 46 L199 46 L199 65 L59 65 ZM54 155 L54 141 L202 141 L202 155 L54 155 ZM54 184 L54 170 L202 170 L202 184 L54 184 ZM159 7 L167 23 Q181 18 206 9 Q230 0 244 -4 L235 -22 Q193 -2 159 7 ZM88 24 L98 9 Q90 5 75 -1 Q43 -16 24 -24 Q23 -22 19 -16 Q16 -11 14 -8 Q56 6 88 24 Z" /><glyph glyph-name="" unicode="&#x667a;" d="M48 80 L210 80 L210 -28 L192 -28 L192 -17 L66 -17 L66 -28 L48 -28 L48 80 ZM142 189 L233 189 L233 97 L142 97 L142 189 ZM46 210 L63 207 Q59 197 53 186 L126 186 L126 171 L88 171 Q88 157 86 145 L133 145 L133 130 L85 130 Q109 114 133 97 L122 83 Q118 86 110 92 Q98 101 77 117 Q65 90 19 70 Q14 79 8 86 Q56 102 64 130 L12 130 L12 145 L68 145 Q70 157 70 171 L43 171 Q35 159 23 147 Q21 149 17 154 Q13 158 11 160 Q35 180 46 210 ZM159 173 L159 112 L216 112 L216 173 L159 173 ZM66 64 L66 38 L192 38 L192 64 L66 64 ZM66 23 L66 -2 L192 -2 L192 23 L66 23 Z" /><glyph glyph-name="" unicode="&#x6682;" d="M45 72 L211 72 L211 -28 L194 -28 L194 -18 L62 -18 L62 -28 L45 -28 L45 72 ZM8 108 Q37 110 69 111 L69 130 L19 130 L19 145 Q24 152 36 172 L10 172 L10 186 L44 186 Q51 199 57 211 L73 206 Q69 196 63 186 L126 186 L126 172 L55 172 Q43 152 38 145 L69 145 L69 163 L85 163 L85 145 L124 145 L124 130 L85 130 L85 112 Q91 112 104 113 Q117 113 123 114 Q123 106 122 99 Q116 99 104 98 Q91 98 85 97 L85 78 L69 78 L69 96 Q51 94 19 92 Q13 92 10 92 L8 108 ZM140 190 Q183 190 236 198 L241 183 Q196 177 156 176 L156 160 Q156 152 156 145 L246 145 L246 130 L211 130 L211 79 L194 79 L194 130 L155 130 Q152 103 132 75 Q120 86 118 87 Q142 113 140 161 L140 190 ZM62 19 L62 -3 L194 -3 L194 19 L62 19 ZM62 57 L62 34 L194 34 L194 57 L62 57 Z" /><glyph glyph-name="" unicode="&#x66f4;" d="M8 -13 Q62 -2 80 7 Q64 18 44 40 L59 51 Q75 30 95 19 Q110 35 114 55 L37 55 L37 157 L120 157 L120 179 L17 179 L17 196 L239 196 L239 179 L138 179 Q138 170 138 157 L221 157 L221 43 L203 43 L203 55 L133 55 Q128 28 112 10 Q153 -4 249 -5 Q247 -8 243 -18 Q241 -23 240 -24 Q134 -20 98 -1 Q76 -16 19 -30 Q14 -21 8 -13 ZM137 98 Q137 83 135 72 L203 72 L203 98 L137 98 ZM203 140 L138 140 Q138 126 138 114 L203 114 L203 140 ZM55 140 L55 114 L120 114 Q120 126 120 140 L55 140 ZM117 72 Q119 83 119 98 L55 98 L55 72 L117 72 Z" /><glyph glyph-name="" unicode="&#x6700;" d="M10 1 Q22 1 34 3 L34 95 L8 95 L8 110 L248 110 L248 95 L121 95 L121 13 Q133 15 144 16 Q144 10 145 0 Q139 0 124 -1 Q135 0 121 -1 L121 -30 L105 -30 L105 -3 Q79 -6 15 -14 L10 1 ZM44 198 L212 198 L212 125 L44 125 L44 198 ZM133 64 L133 78 L230 78 L230 63 Q214 29 197 11 Q214 0 248 -9 Q241 -17 236 -26 Q201 -13 185 0 Q166 -16 137 -28 Q134 -22 125 -13 Q157 0 172 10 Q154 31 144 64 L133 64 ZM61 155 L61 140 L195 140 L195 155 L61 155 ZM61 183 L61 168 L195 168 L195 183 L61 183 ZM211 64 L161 64 Q169 39 185 22 Q201 39 211 64 ZM51 5 Q62 6 87 9 Q99 10 105 11 L105 28 L51 28 L51 5 ZM51 95 L51 76 L105 76 L105 95 L51 95 ZM51 61 L51 42 L105 42 L105 61 L51 61 Z" /><glyph glyph-name="" unicode="&#x6709;" d="M76 -28 L57 -28 L57 94 Q39 74 18 56 Q13 64 7 74 Q57 116 84 161 L13 161 L13 178 L94 178 Q102 193 108 209 L128 205 Q126 199 121 189 Q117 182 115 178 L247 178 L247 161 L105 161 Q101 152 90 136 Q88 133 87 132 L217 132 L217 3 Q218 -24 188 -25 Q176 -26 149 -25 Q148 -17 145 -5 Q169 -7 182 -7 Q199 -7 198 7 L198 25 L76 25 L76 -28 ZM76 116 L76 86 L198 86 L198 116 L76 116 ZM76 70 L76 41 L198 41 L198 70 L76 70 Z" /><glyph glyph-name="" unicode="&#x670d;" d="M113 193 L233 193 L231 157 Q232 123 193 125 Q178 125 162 125 Q162 128 160 135 Q159 141 158 144 Q173 143 190 143 Q214 141 213 158 L214 176 L132 176 L132 107 L234 107 L234 93 Q223 47 198 18 Q216 1 250 -11 Q242 -21 236 -28 Q206 -13 186 5 Q168 -11 142 -26 Q137 -18 132 -10 Q161 3 174 18 Q151 48 143 91 L132 91 L132 -28 L113 -28 L113 193 ZM25 195 L93 195 L93 -1 Q94 -25 70 -25 Q61 -25 48 -25 Q47 -17 45 -8 Q50 -8 65 -8 Q77 -9 76 1 L76 55 L42 55 Q43 0 22 -28 Q16 -22 8 -15 Q27 7 25 59 L25 195 ZM215 91 L159 91 Q167 57 186 31 Q207 58 215 91 ZM42 117 L42 70 L76 70 L76 117 L42 117 ZM42 179 L42 133 L76 133 L76 179 L42 179 Z" /><glyph glyph-name="" unicode="&#x671f;" d="M150 198 L236 198 L236 2 Q236 -25 209 -25 Q196 -25 182 -25 Q181 -17 179 -6 Q197 -7 205 -7 Q219 -8 218 4 L218 55 L166 55 Q163 2 134 -32 Q128 -25 119 -18 Q139 3 144 27 Q150 51 150 108 L150 198 ZM100 205 L118 205 L118 174 L137 174 L137 158 L118 158 L118 46 L137 46 L137 30 L9 30 L9 46 L31 46 L31 158 L12 158 L12 174 L31 174 L31 204 L49 204 L49 174 L100 174 L100 205 ZM168 108 Q168 87 167 71 L218 71 L218 118 L168 118 L168 108 ZM168 182 L168 134 L218 134 L218 182 L168 182 ZM49 73 L49 46 L100 46 L100 73 L49 73 ZM49 115 L49 89 L100 89 L100 115 L49 115 ZM49 158 L49 131 L100 131 L100 158 L49 158 ZM50 25 L64 13 Q38 -14 20 -29 Q15 -23 7 -17 Q33 4 50 25 ZM81 14 L93 25 Q102 18 120 4 Q123 1 125 0 L112 -12 Q104 -4 88 8 Q83 12 81 14 Z" /><glyph glyph-name="" unicode="&#x672a;" d="M11 106 L119 106 L119 148 L25 148 L25 166 L119 166 L119 208 L137 208 L137 166 L232 166 L232 148 L137 148 L137 106 L245 106 L245 89 L150 89 Q184 37 249 7 Q240 -1 236 -8 Q173 24 137 82 L137 -28 L119 -28 L119 82 Q81 21 20 -13 Q14 -3 7 2 Q71 34 106 89 L11 89 L11 106 Z" /><glyph glyph-name="" unicode="&#x673a;" d="M135 174 L135 108 Q135 53 126 25 Q118 -4 92 -31 Q89 -28 82 -21 Q79 -18 77 -16 Q100 7 108 32 Q116 58 116 108 L116 192 L205 192 L205 14 Q204 -2 215 -1 L218 -1 Q228 -2 229 11 Q231 20 232 45 Q233 50 233 52 Q241 48 251 46 Q250 35 248 15 Q247 8 247 5 Q243 -21 219 -20 L214 -20 Q185 -22 186 11 L186 174 L135 174 ZM6 54 Q34 95 46 143 L9 143 L9 160 L47 160 L47 207 L65 207 L65 160 L99 160 L99 143 L65 143 L65 103 L75 113 Q92 98 104 85 L91 72 Q90 73 88 75 Q77 89 65 99 L65 -27 L47 -27 L47 101 Q35 62 15 35 Q14 38 10 45 Q7 51 6 54 Z" /><glyph glyph-name="" unicode="&#x6807;" d="M45 207 L63 207 L63 159 L95 159 L95 143 L63 143 L63 101 L73 111 Q82 103 100 86 L87 72 Q81 79 63 99 L63 -28 L45 -28 L45 102 Q35 68 15 36 Q14 39 9 48 Q7 52 6 54 Q33 94 44 143 L10 143 L10 159 L45 159 L45 207 ZM95 122 L246 122 L246 105 L180 105 L180 4 Q181 -26 150 -25 Q134 -25 120 -25 Q120 -23 119 -20 Q117 -10 116 -5 Q125 -6 146 -6 Q162 -7 161 6 L161 105 L95 105 L95 122 ZM106 193 L234 193 L234 176 L106 176 L106 193 ZM196 73 L212 82 Q225 58 248 9 Q247 12 251 4 L232 -2 Q230 1 226 10 Q208 50 196 73 ZM120 81 L138 74 Q119 34 98 -3 Q89 1 80 5 Q102 39 120 81 Z" /><glyph glyph-name="" unicode="&#x683c;" d="M88 130 Q121 165 138 209 L157 205 Q155 202 152 195 Q148 186 146 182 L232 182 L232 165 Q214 135 185 110 Q210 92 250 85 Q248 81 239 66 Q191 80 169 99 Q144 80 96 62 Q91 70 84 79 Q134 95 155 111 Q138 125 124 147 Q113 131 101 117 Q99 120 91 128 Q89 129 88 130 ZM109 63 L230 63 L230 -29 L211 -29 L211 -16 L128 -16 L128 -29 L109 -29 L109 63 ZM8 56 Q34 97 44 144 L12 144 L12 161 L46 161 L46 208 L63 208 L63 161 L93 161 L93 144 L63 144 L63 114 L73 122 Q81 114 98 99 L85 87 Q71 103 63 111 L63 -29 L46 -29 L46 104 Q34 61 15 35 Q12 45 8 56 ZM128 46 L128 0 L211 0 L211 46 L128 46 ZM211 166 L136 166 L135 164 Q149 138 170 121 Q193 138 211 166 Z" /><glyph glyph-name="" unicode="&#x6b22;" d="M29 144 Q46 118 66 89 Q76 118 80 163 L14 163 L14 181 L99 181 L99 163 Q92 104 78 70 Q87 57 104 32 Q109 25 111 21 L94 9 Q91 14 85 24 Q75 41 69 50 Q54 17 19 -16 Q14 -9 7 0 Q41 34 57 69 Q27 115 15 134 L29 144 ZM176 142 Q176 121 175 103 Q192 26 249 -8 Q244 -13 233 -26 Q184 10 169 63 Q157 10 92 -29 Q86 -22 78 -13 Q126 13 141 45 Q158 76 157 142 L176 142 ZM99 112 Q120 154 132 209 L151 204 Q147 188 142 171 L243 171 L243 155 Q229 123 219 108 Q214 112 201 116 Q211 130 222 154 L137 154 Q128 128 117 104 Q110 109 99 112 Z" /><glyph glyph-name="" unicode="&#x6b23;" d="M120 197 L123 180 Q76 175 45 174 L45 118 L128 118 L128 101 L100 101 L100 -26 L81 -26 L81 101 L45 101 Q46 14 21 -28 Q14 -18 8 -12 Q28 17 26 102 L26 189 Q86 192 120 197 ZM170 130 L188 130 Q188 111 187 89 Q207 15 250 -13 Q247 -16 241 -22 Q237 -26 235 -28 Q196 4 181 58 Q168 9 125 -29 Q119 -23 111 -14 Q164 29 169 91 Q170 102 170 130 ZM125 122 Q147 163 159 207 L177 204 Q173 188 167 171 L245 171 L245 155 L226 113 L208 118 L225 154 L161 154 Q159 150 155 141 Q148 123 142 113 Q131 120 125 122 Z" /><glyph glyph-name="" unicode="&#x6b64;" d="M29 161 L48 161 L48 10 Q63 13 80 16 L80 205 L99 205 L99 133 L143 133 L143 115 L99 115 L99 20 Q120 25 140 29 Q140 16 141 9 Q79 -2 13 -17 L8 2 Q12 3 19 4 Q26 6 29 6 L29 161 ZM151 208 L169 208 L169 122 Q203 144 229 168 L243 153 Q213 126 169 100 L169 17 Q167 -1 189 0 L204 0 Q222 0 224 15 Q227 26 228 54 Q237 51 248 48 Q245 23 242 7 Q238 -19 207 -18 L184 -18 Q149 -20 151 15 L151 208 Z" /><glyph glyph-name="" unicode="&#x6bcf;" d="M215 148 Q215 117 213 87 L248 87 L248 70 L212 70 Q212 69 212 67 Q210 46 210 26 L239 26 L239 9 L208 9 Q205 -27 166 -26 Q147 -26 132 -26 Q132 -24 131 -21 Q129 -11 128 -6 Q138 -7 164 -7 Q186 -8 189 9 L31 9 L41 70 L9 70 L9 87 L45 87 L55 148 L215 148 ZM191 26 Q191 38 193 67 Q191 46 193 70 L61 70 L53 26 L191 26 ZM72 131 L64 87 L194 87 Q194 94 194 108 Q195 123 195 131 L72 131 ZM8 138 Q42 166 64 209 L86 209 Q80 199 73 188 L242 188 L242 170 L62 170 Q46 147 21 123 Q16 130 8 138 ZM105 116 L117 129 Q127 122 143 109 Q148 105 150 103 L137 89 Q123 103 105 116 ZM103 55 L115 67 Q119 64 125 59 Q140 49 148 42 L135 28 Q123 40 103 55 Z" /><glyph glyph-name="" unicode="&#x6c14;" d="M33 85 L33 102 L205 102 L205 77 Q205 9 214 -1 Q218 -8 222 -7 Q226 -6 228 0 Q229 12 231 39 Q239 37 249 34 Q247 9 244 -5 Q240 -28 221 -28 Q205 -29 197 -13 Q185 8 185 77 L185 85 L33 85 ZM8 111 Q43 155 60 209 L79 205 Q75 193 70 181 L236 181 L236 164 L63 164 Q44 122 15 89 Q14 96 8 111 ZM60 141 L217 141 L217 125 L60 125 L60 141 Z" /><glyph glyph-name="" unicode="&#x6ca1;" d="M88 84 L88 100 L222 100 L222 84 Q205 43 174 17 Q206 -1 249 -8 Q241 -20 234 -28 Q188 -13 158 5 Q131 -11 75 -30 Q69 -22 62 -13 Q115 1 143 18 Q114 43 100 84 L88 84 ZM192 178 L129 178 L129 171 Q132 127 88 105 Q87 106 84 110 Q76 118 73 120 Q113 137 110 171 L110 196 L211 196 L211 147 Q211 136 222 136 L249 136 Q247 126 247 118 L217 118 Q191 117 192 143 L192 178 ZM201 84 L119 84 Q132 51 159 29 Q185 49 201 84 ZM43 73 Q53 69 62 65 Q47 20 31 -27 L11 -20 Q27 20 43 73 ZM20 142 Q32 133 62 109 L49 93 Q19 119 8 128 L20 142 ZM29 204 Q55 185 71 169 L57 155 Q50 162 31 179 Q21 188 17 191 L29 204 Z" /><glyph glyph-name="" unicode="&#x6cb9;" d="M152 207 L171 207 L171 165 L241 165 L241 -27 L222 -27 L222 -12 L101 -12 L101 -28 L82 -28 L82 165 L152 165 L152 207 ZM171 70 L171 3 L222 3 L222 70 L171 70 ZM101 70 L101 3 L152 3 L152 70 L101 70 ZM222 148 L171 148 L171 87 L222 87 L222 148 ZM101 148 L101 87 L152 87 L152 148 L101 148 ZM42 69 Q53 63 60 60 Q52 34 33 -27 L14 -18 Q27 12 42 69 ZM19 140 Q36 128 61 107 Q52 97 47 91 Q23 112 7 125 L19 140 ZM31 202 Q34 200 38 196 Q61 178 72 168 Q64 159 58 153 Q40 171 18 189 L31 202 Z" /><glyph glyph-name="" unicode="&#x6d0b;" d="M82 166 L128 166 Q119 179 102 197 L117 208 Q120 205 127 197 Q140 183 145 177 L129 166 L169 166 Q191 192 201 209 L219 198 Q207 183 192 166 L240 166 L240 148 L168 148 L168 109 L229 109 L229 92 L168 92 L168 49 L245 49 L245 32 L168 32 L168 -28 L149 -28 L149 32 L75 32 L75 49 L149 49 L149 92 L90 92 L90 109 L149 109 L149 148 L82 148 L82 166 ZM46 70 Q47 70 49 68 Q60 63 65 61 Q51 24 35 -26 L15 -16 Q34 25 46 70 ZM31 205 Q52 190 76 172 L62 156 Q36 178 19 190 L31 205 ZM19 141 Q22 139 30 134 Q54 118 65 110 L52 94 Q32 110 8 126 L19 141 Z" /><glyph glyph-name="" unicode="&#x6d12;" d="M68 197 L244 197 L244 179 L185 179 L185 141 L235 141 L235 -27 L217 -27 L217 -13 L92 -13 L92 -27 L74 -27 L74 141 L123 141 L123 179 L68 179 L68 197 ZM92 124 L92 2 L217 2 L217 47 L190 47 Q166 46 167 71 L167 124 L141 124 Q142 61 106 33 Q103 38 93 46 Q112 63 117 77 Q122 92 123 124 L92 124 ZM217 124 L185 124 L185 75 Q184 63 194 64 L217 64 L217 124 ZM40 73 Q42 72 51 69 Q57 67 59 66 Q49 26 37 -25 L16 -19 Q29 18 40 73 ZM28 203 Q57 179 69 169 L55 154 Q37 172 15 190 L28 203 ZM19 141 Q36 129 61 108 L47 93 Q23 116 7 128 L19 141 ZM141 179 L141 141 L167 141 L167 179 L141 179 Z" /><glyph glyph-name="" unicode="&#x6d3b;" d="M90 73 L150 73 L150 114 L74 114 L74 132 L150 132 L150 173 Q118 172 85 170 Q84 176 81 188 Q140 189 235 197 L238 178 Q230 178 212 176 Q184 175 169 174 L169 132 L248 132 L248 114 L169 114 L169 73 L230 73 L230 -29 L211 -29 L211 -15 L109 -15 L109 -29 L90 -29 L90 73 ZM109 56 L109 1 L211 1 L211 56 L109 56 ZM45 69 Q56 65 65 60 Q43 0 34 -26 L14 -17 Q32 25 45 69 ZM17 142 Q31 134 60 113 Q58 114 63 111 L51 95 Q48 97 42 102 Q24 115 6 127 L17 142 ZM29 205 Q32 203 37 199 Q61 181 72 172 L59 157 Q48 166 29 181 Q21 188 17 191 L29 205 Z" /><glyph glyph-name="" unicode="&#x6d41;" d="M74 177 L149 177 Q145 187 134 204 L152 212 Q167 188 168 183 L156 177 L240 177 L240 160 L136 160 L148 153 Q128 130 107 112 Q122 113 155 114 Q182 115 195 115 Q183 130 173 139 L188 150 Q218 119 240 94 Q232 89 223 82 Q221 85 216 91 Q212 96 209 99 Q206 99 199 99 Q130 97 102 94 Q96 94 87 92 Q84 91 82 91 L74 109 Q83 114 91 120 Q116 141 130 160 L74 160 L74 177 ZM186 83 L203 83 L203 3 Q203 -6 214 -6 L219 -6 Q229 -6 230 2 Q232 20 232 36 Q240 32 250 29 Q249 11 246 -1 Q242 -23 221 -23 L212 -23 Q186 -23 186 0 L186 83 ZM95 83 L113 83 Q113 31 105 10 Q97 -11 69 -30 Q63 -22 57 -14 Q81 0 87 18 Q95 35 95 83 ZM140 83 L158 83 L158 -24 L140 -24 L140 83 ZM15 -21 Q28 19 40 72 Q50 68 59 64 Q47 18 35 -27 L15 -21 ZM7 127 L19 142 Q42 126 61 110 Q52 101 47 94 Q18 120 7 127 ZM17 191 L29 204 Q39 196 57 181 Q65 174 69 170 Q61 162 54 156 Q28 182 17 191 Z" /><glyph glyph-name="" unicode="&#x6d77;" d="M225 147 Q225 136 224 114 Q224 95 224 86 L249 86 L249 70 L223 70 Q223 61 222 45 Q222 31 222 25 L241 25 L241 9 L221 9 Q219 -26 180 -26 Q164 -26 147 -26 Q147 -22 145 -13 Q144 -8 144 -6 Q157 -7 177 -7 Q200 -8 202 9 L77 9 L85 70 L61 70 L61 86 L87 86 L95 147 L225 147 ZM203 25 Q204 32 204 47 Q205 62 205 70 L103 70 L98 25 L203 25 ZM111 131 L105 86 L205 86 Q206 109 206 131 L111 131 ZM59 140 Q92 170 109 210 L127 207 Q122 195 116 185 L244 185 L244 168 L106 168 Q87 141 71 125 Q69 128 63 135 Q60 138 59 140 ZM14 -22 Q22 2 38 60 Q39 66 40 69 Q50 65 58 62 Q46 19 35 -28 L14 -22 ZM20 142 Q41 125 61 110 L47 95 Q29 112 8 128 L20 142 ZM29 205 Q47 192 69 171 L56 157 Q33 179 17 192 L29 205 ZM135 116 L146 128 Q161 116 176 104 L164 91 Q150 104 135 116 ZM133 53 L143 64 Q159 52 174 40 L162 27 Q159 30 152 36 Q148 41 133 53 Z" /><glyph glyph-name="" unicode="&#x6da9;" d="M86 180 L86 197 L234 197 Q234 171 232 133 Q231 96 197 98 Q193 98 184 98 Q173 97 167 97 Q165 106 162 117 Q170 116 195 116 Q213 114 214 135 Q215 153 215 180 L163 180 Q166 100 84 78 Q84 79 82 80 Q76 90 72 93 Q117 107 130 124 Q145 140 145 180 L86 180 ZM98 68 L116 68 L116 0 L154 0 L154 88 L173 88 L173 59 L237 59 L237 42 L173 42 L173 0 L245 0 L245 -17 L70 -17 L70 0 L98 0 L98 68 ZM44 71 Q55 67 62 64 Q57 45 44 0 Q38 -20 36 -28 L16 -20 Q32 18 44 71 ZM20 142 Q24 138 44 123 Q59 111 62 108 L48 94 Q17 122 7 129 L20 142 ZM31 201 Q32 200 35 198 Q60 178 72 166 L59 153 Q53 158 40 170 Q25 184 18 189 L31 201 ZM106 171 L122 163 Q103 133 91 119 Q89 120 85 123 Q78 128 77 129 Q93 146 106 171 Z" /><glyph glyph-name="" unicode="&#x6e3a;" d="M67 192 L132 192 L132 88 Q147 127 153 165 L170 161 Q163 122 146 76 Q140 79 132 84 L132 6 L83 6 L83 -7 L67 -7 L67 192 ZM228 83 L245 75 Q207 -1 120 -31 Q119 -28 115 -22 Q112 -16 110 -13 Q197 10 228 83 ZM180 207 L198 207 L198 47 L180 47 L180 207 ZM35 70 Q45 67 53 62 Q51 52 44 20 Q36 -14 33 -28 L13 -21 Q25 18 35 70 ZM83 64 L83 22 L115 22 L115 64 L83 64 ZM83 120 L83 80 L115 80 L115 120 L83 120 ZM83 176 L83 136 L115 136 L115 176 L83 176 ZM207 162 L223 168 Q238 135 250 100 L233 93 Q226 118 207 162 ZM20 140 Q38 126 59 109 L45 94 Q35 104 13 122 Q27 110 8 126 L20 140 ZM27 202 Q36 196 59 176 Q63 173 65 171 L51 157 Q37 171 15 191 L27 202 Z" /><glyph glyph-name="" unicode="&#x6f14;" d="M96 146 L215 146 L215 130 L163 130 L163 111 L226 111 L226 21 L83 21 L83 111 L146 111 L146 130 L96 130 L96 146 ZM140 206 L157 209 Q158 206 160 197 Q164 186 165 181 L239 181 L239 142 L221 142 L221 166 L89 166 L89 142 L71 142 L71 181 L146 181 Q145 184 144 191 Q141 202 140 206 ZM43 70 Q52 65 61 61 Q52 30 34 -26 L15 -17 Q32 24 43 70 ZM128 17 L141 4 Q134 0 121 -6 Q92 -23 78 -29 Q74 -22 66 -14 Q105 2 128 17 ZM167 4 L177 17 Q180 15 188 12 Q221 -2 241 -12 L229 -27 Q190 -5 167 4 ZM101 59 L101 36 L146 36 L146 59 L101 59 ZM163 59 L163 36 L209 36 L209 59 L163 59 ZM209 96 L163 96 L163 73 L209 73 L209 96 ZM101 96 L101 73 L146 73 L146 96 L101 96 ZM19 139 Q32 130 59 107 L47 92 Q39 100 13 123 Q9 126 8 127 L19 139 ZM30 203 Q52 187 68 170 L55 157 Q36 176 18 191 L30 203 Z" /><glyph glyph-name="" unicode="&#x6f2b;" d="M87 199 L225 199 L225 129 L87 129 L87 199 ZM73 115 L239 115 L239 64 L73 64 L73 115 ZM81 36 L81 50 L219 50 L219 34 Q202 16 175 2 Q194 -2 249 -9 Q244 -16 238 -27 Q181 -18 154 -6 Q120 -20 65 -29 Q64 -27 62 -23 Q58 -15 55 -12 Q99 -5 134 2 Q115 13 96 36 L81 36 ZM43 70 Q52 65 61 61 Q52 30 34 -26 L15 -17 Q32 24 43 70 ZM104 157 L104 142 L207 142 L207 157 L104 157 ZM104 185 L104 170 L207 170 L207 185 L104 185 ZM197 36 L118 36 Q136 17 154 10 Q178 20 197 36 ZM19 139 Q36 127 61 106 L48 91 Q29 109 8 126 L19 139 ZM30 203 Q52 186 70 169 L57 155 Q37 174 18 191 L30 203 ZM90 101 L90 78 L123 78 L123 101 L90 101 ZM222 101 L189 101 L189 78 L222 78 L222 101 ZM140 101 L140 78 L173 78 L173 101 L140 101 Z" /><glyph glyph-name="" unicode="&#x6fc0;" d="M188 208 L205 205 Q201 182 195 162 L247 162 L247 146 L235 146 Q229 72 212 35 Q227 7 250 -11 Q244 -19 239 -27 Q218 -8 202 18 Q191 -2 159 -30 Q154 -23 147 -15 Q180 12 194 37 Q181 68 176 111 Q170 98 164 88 Q160 95 154 103 Q178 146 188 208 ZM67 183 L95 183 Q100 195 104 209 L121 205 Q117 193 111 183 L152 183 L152 99 L67 99 L67 183 ZM97 95 L112 98 Q113 95 115 88 Q117 81 118 78 L164 78 L164 63 L96 63 Q96 60 95 54 Q95 48 95 46 L150 46 Q148 18 147 8 Q147 -23 116 -22 Q102 -22 99 -22 Q98 -15 95 -5 Q108 -6 114 -6 Q130 -7 131 9 Q132 16 132 31 L93 31 Q91 0 59 -28 Q56 -24 48 -16 Q82 8 80 63 L54 63 L54 78 L102 78 Q100 86 97 95 ZM203 56 Q214 87 217 146 L190 146 Q188 143 188 139 Q191 89 203 56 ZM33 67 Q42 63 51 60 Q35 0 30 -27 L10 -20 Q22 12 33 67 ZM83 135 L83 112 L136 112 L136 135 L83 135 ZM83 169 L83 148 L136 148 L136 169 L83 169 ZM17 142 Q21 139 29 132 Q44 120 53 113 Q46 105 40 98 Q32 106 17 120 Q10 126 6 129 L17 142 ZM27 203 Q45 190 62 174 Q54 166 48 159 Q26 181 15 190 L27 203 Z" /><glyph glyph-name="" unicode="&#x70b9;" d="M115 209 L135 209 L135 177 L243 177 L243 160 L135 160 L135 131 L221 131 L221 48 L39 48 L39 131 L115 131 L115 209 ZM58 113 L58 65 L201 65 L201 113 L58 113 ZM58 27 Q34 -11 24 -27 L8 -16 Q23 5 40 36 L58 27 ZM214 36 Q219 27 232 7 Q242 -7 245 -13 L227 -23 Q225 -20 221 -12 Q205 15 197 27 L214 36 ZM95 34 Q100 21 112 -12 Q114 -15 114 -16 L95 -23 Q92 -12 83 15 Q79 24 78 28 L95 34 ZM154 35 Q169 2 175 -13 L157 -21 Q154 -12 143 15 Q139 25 137 29 L154 35 Z" /><glyph glyph-name="" unicode="&#x7136;" d="M7 112 Q47 158 67 211 L84 205 Q81 198 74 184 L131 184 L131 167 Q108 74 27 29 Q21 35 12 43 Q94 85 112 167 L65 167 Q64 166 62 162 Q60 159 59 157 Q77 146 92 138 L82 124 Q76 129 61 138 Q54 142 51 144 Q49 142 46 137 Q42 132 40 129 Q46 126 57 118 Q69 111 74 107 L63 94 Q49 106 32 117 Q26 108 18 100 Q12 106 7 112 ZM165 207 L183 207 Q183 171 182 147 L181 145 L245 145 L245 129 L185 129 Q199 78 249 52 Q245 45 238 37 Q189 66 175 115 Q160 66 109 34 Q103 41 98 50 Q154 83 162 129 L129 129 L129 145 L164 145 Q164 147 164 148 Q165 175 165 207 ZM199 26 L215 36 Q233 9 246 -12 L229 -22 Q222 -9 205 16 Q201 23 199 26 ZM40 31 L57 24 Q48 3 31 -27 Q23 -23 14 -20 Q31 8 40 31 ZM80 20 L96 27 Q109 4 119 -16 L101 -24 Q92 -3 80 20 ZM140 22 L156 29 Q168 9 180 -14 L163 -21 Q156 -6 145 13 Q142 19 140 22 ZM196 189 L207 199 Q212 195 224 185 Q234 176 239 172 L226 159 Q211 174 196 189 Z" /><glyph glyph-name="" unicode="&#x7231;" d="M89 121 L108 118 Q105 109 102 100 L246 100 L246 83 L95 83 Q91 72 86 63 L217 63 L217 46 Q194 22 164 5 Q200 -3 248 -9 Q247 -10 244 -15 Q239 -25 237 -27 Q179 -20 142 -3 Q104 -21 44 -30 Q40 -23 34 -13 Q85 -5 120 6 Q96 20 75 44 Q55 12 17 -15 Q11 -4 7 0 Q55 34 76 83 L13 83 L13 100 L82 100 Q83 102 84 106 Q86 109 89 121 ZM45 171 L59 178 Q53 178 40 177 Q30 177 25 177 Q24 182 23 189 Q22 194 22 195 Q138 195 231 201 L236 185 Q221 184 174 182 Q144 181 129 180 Q138 165 146 151 L129 144 Q120 162 112 174 L125 180 Q114 180 93 179 Q71 179 61 178 Q63 175 67 169 Q71 163 80 151 L65 143 L170 143 Q190 171 197 182 L215 173 Q210 167 202 157 Q195 147 191 143 L238 143 L238 107 L220 107 L220 126 L37 126 L37 107 L19 107 L19 143 L63 143 Q62 145 59 149 Q50 165 45 171 ZM191 47 L96 47 Q117 27 142 15 Q172 29 191 47 Z" /><glyph glyph-name="" unicode="&#x7279;" d="M52 207 L70 207 L70 152 L101 152 L101 136 L70 136 L70 84 Q84 90 97 94 Q97 93 98 89 Q99 80 100 77 Q94 74 80 70 Q74 67 70 66 L70 -28 L52 -28 L52 59 Q32 52 11 44 L7 64 Q17 67 37 73 Q47 76 52 78 L52 136 L32 136 Q28 115 20 95 Q13 100 5 104 Q18 141 22 185 L39 182 Q38 167 35 152 L52 152 L52 207 ZM159 208 L177 208 L177 174 L236 174 L236 158 L177 158 L177 122 L247 122 L247 105 L92 105 L92 122 L159 122 L159 158 L102 158 L102 174 L159 174 L159 208 ZM97 73 L195 73 L195 99 L213 99 L213 73 L248 73 L248 56 L213 56 L213 3 Q214 -26 183 -26 Q158 -26 150 -26 Q150 -24 149 -20 Q147 -10 146 -5 Q148 -5 151 -5 Q164 -7 178 -7 Q196 -8 195 6 L195 56 L97 56 L97 73 ZM110 39 L124 50 Q139 34 154 16 L139 4 Q125 22 110 39 Z" /><glyph glyph-name="" unicode="&#x72ec;" d="M101 161 L156 161 L156 207 L174 207 L174 161 L230 161 L230 66 L174 66 L174 9 Q196 11 214 12 Q206 28 200 42 L216 49 Q219 44 225 31 Q244 -5 249 -17 L230 -25 Q227 -16 221 -2 Q190 -5 90 -16 L86 2 Q104 3 156 7 L156 66 L119 66 L119 56 L101 56 L101 161 ZM8 52 Q38 74 58 104 Q55 122 49 136 Q36 123 20 111 Q15 121 9 126 Q26 138 41 153 Q31 172 13 190 L27 200 Q46 182 54 167 Q69 184 78 198 L94 188 Q93 186 90 183 Q78 167 63 150 Q80 112 80 39 Q82 -21 42 -20 Q28 -20 17 -20 Q14 -5 13 -1 Q18 -2 42 -2 Q63 -4 62 38 Q62 62 61 80 Q42 54 19 37 Q13 46 8 52 ZM213 144 L174 144 L174 83 L213 83 L213 144 ZM119 144 L119 83 L156 83 L156 144 L119 144 Z" /><glyph glyph-name="" unicode="&#x7406;" d="M97 47 L159 47 L159 76 L102 76 L102 195 L233 195 L233 76 L177 76 L177 47 L238 47 L238 31 L177 31 L177 -2 L249 -2 L249 -19 L83 -19 L83 -2 L159 -2 L159 31 L97 31 L97 47 ZM12 105 L42 105 L42 169 L9 169 L9 186 L92 186 L92 169 L60 169 L60 105 L91 105 L91 89 L60 89 L60 24 Q76 29 91 33 Q92 22 93 14 Q90 13 82 11 Q34 -1 12 -8 L6 10 Q23 15 42 19 L42 89 L12 89 L12 105 ZM120 128 L120 91 L159 91 L159 128 L120 128 ZM177 128 L177 91 L215 91 L215 128 L177 128 ZM120 179 L120 143 L159 143 L159 179 L120 179 ZM215 179 L177 179 L177 143 L215 143 L215 179 Z" /><glyph glyph-name="" unicode="&#x751f;" d="M61 197 L81 191 Q74 173 66 157 L122 157 L122 209 L142 209 L142 157 L234 157 L234 139 L142 139 L142 83 L228 83 L228 64 L142 64 L142 3 L248 3 L248 -14 L9 -14 L9 3 L122 3 L122 64 L36 64 L36 83 L122 83 L122 139 L56 139 Q42 113 22 88 Q15 96 7 103 Q43 143 61 197 Z" /><glyph glyph-name="" unicode="&#x7531;" d="M29 -25 L29 162 L119 162 L119 208 L138 208 L138 162 L228 162 L228 -25 L209 -25 L209 -11 L48 -11 L48 -25 L29 -25 ZM48 67 L48 6 L119 6 L119 67 L48 67 ZM138 67 L138 6 L209 6 L209 67 L138 67 ZM48 144 L48 84 L119 84 L119 144 L48 144 ZM209 144 L138 144 L138 84 L209 84 L209 144 Z" /><glyph glyph-name="" unicode="&#x7535;" d="M110 208 L129 208 L129 176 L218 176 L218 40 L129 40 L129 15 Q127 -3 151 -2 L199 -2 Q220 -3 223 10 Q226 18 227 41 Q239 38 247 35 Q245 16 241 2 Q236 -21 201 -20 L146 -20 Q108 -22 110 14 L110 40 L39 40 L39 23 L21 23 L21 176 L110 176 L110 208 ZM129 58 L199 58 L199 100 L129 100 L129 58 ZM39 100 L39 58 L110 58 L110 100 L39 100 ZM199 158 L129 158 L129 116 L199 116 L199 158 ZM39 158 L39 116 L110 116 L110 158 L39 158 Z" /><glyph glyph-name="" unicode="&#x7559;" d="M36 90 L220 90 L220 -27 L203 -27 L203 -16 L54 -16 L54 -28 L36 -28 L36 90 ZM125 178 L125 194 L233 194 Q233 161 231 143 Q231 103 194 103 Q177 103 170 103 Q169 112 166 122 Q178 120 193 120 Q214 119 214 145 Q215 162 215 178 L168 178 Q169 121 124 92 Q118 98 111 105 Q153 130 151 178 L125 178 ZM77 161 L91 170 Q112 141 122 124 L107 114 Q103 120 98 129 Q93 127 84 123 Q61 114 48 108 Q42 106 30 96 L17 114 Q24 119 24 132 L24 192 Q69 195 110 206 L117 188 Q81 181 42 176 L42 125 Q46 127 56 130 Q79 139 89 143 Q83 152 77 161 ZM137 28 L137 -1 L203 -1 L203 28 L137 28 ZM54 28 L54 -1 L119 -1 L119 28 L54 28 ZM203 74 L137 74 L137 44 L203 44 L203 74 ZM54 74 L54 44 L119 44 L119 74 L54 74 Z" /><glyph glyph-name="" unicode="&#x7684;" d="M18 168 L42 168 Q52 191 57 208 L78 202 Q75 196 69 183 Q64 173 62 168 L111 168 L111 -23 L93 -23 L93 -4 L37 -4 L37 -25 L18 -25 L18 168 ZM115 119 Q137 156 153 208 L174 203 Q173 200 171 194 Q168 186 161 168 L239 168 Q236 45 235 18 Q234 -26 186 -24 Q176 -24 161 -25 Q152 -25 149 -25 Q147 -13 145 -4 Q148 -4 156 -4 Q175 -5 187 -5 Q215 -7 216 22 Q218 52 219 150 L154 150 Q152 147 149 140 Q138 117 132 108 Q125 113 115 119 ZM37 73 L37 12 L93 12 L93 73 L37 73 ZM37 150 L37 91 L93 91 L93 150 L37 150 ZM136 102 L151 113 Q179 79 194 58 L176 45 Q158 72 136 102 Z" /><glyph glyph-name="" unicode="&#x76d1;" d="M9 -2 L38 -2 L38 74 L218 74 L218 -2 L247 -2 L247 -20 L9 -20 L9 -2 ZM104 110 Q139 153 158 209 L176 204 Q170 188 162 171 L245 171 L245 153 L153 153 Q139 126 119 99 Q118 99 117 101 Q108 108 104 110 ZM99 207 L99 82 L81 82 L81 207 L99 207 ZM200 57 L164 57 L164 -2 L200 -2 L200 57 ZM110 57 L110 -2 L146 -2 L146 57 L110 57 ZM56 57 L56 -2 L92 -2 L92 57 L56 57 ZM28 193 L46 193 L46 93 L28 93 L28 193 ZM156 130 L169 142 Q198 120 221 100 L207 87 Q178 114 156 130 Z" /><glyph glyph-name="" unicode="&#x76f8;" d="M110 191 L237 191 L237 -28 L219 -28 L219 -12 L129 -12 L129 -28 L110 -28 L110 191 ZM6 54 Q34 92 47 142 L11 142 L11 158 L48 158 L48 207 L66 207 L66 158 L101 158 L101 142 L66 142 L66 100 L76 110 Q85 101 106 79 L93 66 Q75 88 66 97 L66 -28 L48 -28 L48 99 Q36 64 16 35 Q12 44 6 54 ZM129 50 L129 3 L219 3 L219 50 L129 50 ZM129 175 L129 128 L219 128 L219 175 L129 175 ZM129 112 L129 66 L219 66 L219 112 L129 112 Z" /><glyph glyph-name="" unicode="&#x770b;" d="M27 161 L104 161 Q105 163 107 169 Q110 176 111 180 Q69 178 26 178 Q25 185 23 194 Q130 196 227 201 L229 185 Q212 184 176 182 Q147 181 131 180 Q131 179 130 176 Q128 171 124 161 L229 161 L229 145 L118 145 Q112 135 108 125 L247 125 L247 110 L98 110 Q92 100 86 92 L217 92 L217 -28 L199 -28 L199 -18 L79 -18 L79 -28 L61 -28 L61 62 Q42 42 18 24 Q15 28 8 38 Q7 39 6 40 Q49 70 76 110 L11 110 L11 125 L86 125 Q87 127 89 131 Q92 135 97 145 L27 145 L27 161 ZM79 76 L79 59 L199 59 L199 76 L79 76 ZM79 12 L79 -3 L199 -3 L199 12 L79 12 ZM79 44 L79 27 L199 27 L199 44 L79 44 Z" /></font>
</defs>
</svg>
